<?xml version="1.0" encoding="UTF-8"?>
<svg width="454px" height="367px" viewBox="0 0 454 367" version="1.1" xmlns="http://www.w3.org/2000/svg" xmlns:xlink="http://www.w3.org/1999/xlink">
    <!-- Generator: sketchtool 53.2 (72643) - https://sketchapp.com -->
    <title>52544643-5DC8-4284-91CD-B3984A7E7AB3@1,5x</title>
    <desc>Created with sketchtool.</desc>
    <g id="Home" stroke="none" stroke-width="1" fill="none" fill-rule="evenodd">
        <g id="1440-copy-11" transform="translate(-830.000000, -746.000000)">
            <g id="Group-20" transform="translate(829.000000, 746.000000)">
                <g id="Group-22" transform="translate(72.000000, 0.000000)">
                    <circle id="Oval-5" fill="#CDECFF" cx="163.5" cy="203.5" r="163.5"></circle>
                    <g id="lamp-(1)" transform="translate(106.500000, 145.000000) scale(1, -1) translate(-106.500000, -145.000000) translate(34.000000, 0.000000)" fill-rule="nonzero">
                        <g id="XMLID_1924_" transform="translate(3.398438, 0.000000)">
                            <path d="M138.13459,172.120664 C138.13459,210.59041 106.66959,241.707637 68.0707031,241.146328 C30.8074023,240.602012 0.470683594,210.136152 0.0725,172.872852 C-0.0957226563,156.921719 5.14070313,142.204785 14.0706641,130.440527 C26.6658398,113.832363 34.4227734,94.1372852 36.0223047,73.4934766 C36.2301758,70.8557227 36.3309961,68.2009766 36.3309961,65.5349023 L36.3309961,49.2071094 L101.87666,49.2071094 L101.87666,64.5748438 C101.87666,67.5552734 101.994473,70.5300391 102.235762,73.4934766 C103.880039,93.9464063 111.182715,113.658477 123.777324,129.974941 C132.779785,141.632148 138.13459,156.253359 138.13459,172.120664 Z" id="XMLID_1953_" fill="#FEC007"></path>
                            <path d="M102.235195,73.4934766 L36.0217383,73.4934766 C36.2296094,70.8557227 36.3304297,68.2009766 36.3304297,65.5349023 L36.3304297,49.2071094 L101.876094,49.2071094 L101.876094,64.5748438 C101.876094,67.5552734 101.993906,70.5300391 102.235195,73.4934766 Z" id="XMLID_1939_" fill="#FE9700"></path>
                            <path d="M138.13459,172.120664 C138.13459,201.475234 119.814746,226.547773 93.9792578,236.532383 C115.285195,224.785117 129.715527,202.103945 129.715527,176.049258 C129.715527,160.181953 124.360723,145.560742 115.358262,133.902969 C100.938691,115.224023 93.4570313,92.1050195 93.4570313,68.5034375 L93.4570313,49.2071094 L101.876094,49.2071094 L101.876094,64.5748438 C101.876094,88.1764258 109.357754,111.29543 123.777324,129.974375 C132.779785,141.632148 138.13459,156.253359 138.13459,172.120664 Z" id="XMLID_1969_" fill="#FE9700"></path>
                            <path d="M52.9991992,135.056172 C50.6180273,135.056172 48.6882813,133.126426 48.6882813,130.745254 L48.6882813,49.2071094 C48.6882813,46.8259375 50.6180273,44.895625 52.9991992,44.895625 C55.3803711,44.895625 57.3106836,46.8253711 57.3106836,49.2071094 L57.3106836,130.745254 C57.3101172,133.125859 55.3803711,135.056172 52.9991992,135.056172 Z" id="XMLID_1913_" fill="#FE9700"></path>
                            <path d="M84.9903906,135.056172 C82.6092188,135.056172 80.6794727,133.126426 80.6794727,130.745254 L80.6794727,49.2071094 C80.6794727,46.8259375 82.6092188,44.895625 84.9903906,44.895625 C87.3715625,44.895625 89.301875,46.8253711 89.301875,49.2071094 L89.301875,130.745254 C89.3013086,133.125859 87.3715625,135.056172 84.9903906,135.056172 Z" id="XMLID_1914_" fill="#FE9700"></path>
                            <path d="M84.9903906,118.998555 C83.8875977,118.998555 82.7836719,118.577715 81.9414258,117.736035 C77.8751953,113.668105 72.3419727,117.642012 71.7240234,118.10873 C70.0083789,119.406934 67.5750977,119.257969 66.0525977,117.735469 C62.1953711,113.877676 55.661875,118.096836 55.3849023,118.27752 C53.4030469,119.579688 50.7296094,119.042734 49.4172461,117.066543 C48.1043164,115.090352 48.6254102,112.431641 50.5942383,111.108516 C54.4004883,108.551758 62.6094141,105.438223 69.3598438,109.455176 C74.2286719,106.956758 81.8581641,105.458613 88.0382227,111.638105 C89.721582,113.322031 89.721582,116.051543 88.0382227,117.735469 C87.1971094,118.577715 86.0931836,118.998555 84.9903906,118.998555 Z" id="XMLID_695_" fill="#FE9700"></path>
                            <path d="M103.464297,65.0744141 L34.5286914,65.0744141 C31.2339062,65.0744141 28.8261133,61.9648438 29.6513672,58.7771094 L31.3630469,52.1654492 L41.5221094,12.9100977 L43.8851563,3.77792969 C44.457793,1.55478516 46.4617383,0 48.7573828,0 L89.2310742,0 C91.5267188,0 93.5306641,1.55478516 94.1083984,3.77736328 L96.4714453,12.9095313 L106.624844,52.1648828 L108.336523,58.776543 C109.161777,61.9648438 106.753418,65.0744141 103.464297,65.0744141 Z" id="XMLID_1949_" fill="#60C1FF"></path>
                            <polygon id="XMLID_1936_" fill="#41AAED" points="106.624277 52.1648828 31.3630469 52.1648828 41.5221094 12.9095313 96.4708789 12.9095313"></polygon>
                            <path d="M107.239395,43.7458203 L30.7501953,43.7458203 C27.7204883,43.7458203 25.2639844,41.2898828 25.2639844,38.2596094 L25.2639844,26.8142383 C25.2639844,23.7845312 27.7199219,21.3280273 30.7501953,21.3280273 L107.239961,21.3280273 C110.269668,21.3280273 112.726172,23.7839648 112.726172,26.8142383 L112.726172,38.2596094 C112.725605,41.2893164 110.269668,43.7458203 107.239395,43.7458203 Z" id="XMLID_1917_" fill="#9AD8FF"></path>
                            <path d="M53.0014648,219.84209 C52.6083789,219.84209 52.2096289,219.788281 51.8125781,219.674434 C24.0456445,211.725488 18.8805859,183.778438 18.6749805,182.592383 C18.2666016,180.246328 19.8378125,178.014688 22.1833008,177.606309 C24.5248242,177.194531 26.7547656,178.764609 27.1676758,181.105 C27.347793,182.104141 31.7119531,204.95127 54.1863867,211.385078 C56.4752344,212.04041 57.8000586,214.427246 57.1441602,216.716094 C56.6021094,218.608457 54.8762695,219.84209 53.0014648,219.84209 Z" id="XMLID_1918_" fill="#F9DE69"></path>
                        </g>
                        <path d="M72.5,290 C70.1188281,290 68.189082,288.070254 68.189082,285.688516 L68.189082,260.992637 C68.189082,258.611465 70.1188281,256.681152 72.5,256.681152 C74.8811719,256.681152 76.8114844,258.610898 76.8114844,260.992637 L76.8114844,285.688516 C76.8114844,288.070254 74.8811719,290 72.5,290 Z" id="XMLID_1922_" fill="#F9DE69"></path>
                        <g id="XMLID_210_" transform="translate(0.000000, 244.687500)" fill="#F9DE69">
                            <path d="M4.83484375,26.5417969 C3.73205078,26.5417969 2.628125,26.120957 1.78644531,25.2792773 C0.102519531,23.5953516 0.102519531,20.8658398 1.78587891,19.1819141 L19.24875,1.71904297 C20.9326758,0.0351171875 23.6627539,0.0356835938 25.3455469,1.71847656 C27.0294727,3.40240234 27.0294727,6.13191406 25.3461133,7.81583984 L7.88324219,25.2787109 C7.0415625,26.120957 5.93820313,26.5417969 4.83484375,26.5417969 Z" id="XMLID_1882_"></path>
                            <path d="M140.165156,26.5417969 C139.061797,26.5417969 137.958438,26.120957 137.116191,25.2787109 L119.653887,7.81640625 C117.970527,6.13248047 117.970527,3.40296875 119.654453,1.71904297 C121.337246,0.0356835938 124.067324,0.03625 125.75125,1.71960938 L143.214121,19.1824805 C144.89748,20.8664063 144.89748,23.595918 143.213555,25.2798438 C142.371875,26.120957 141.267949,26.5417969 140.165156,26.5417969 Z" id="XMLID_99_"></path>
                        </g>
                    </g>
                    <g id="folder" transform="translate(117.000000, 118.000000)">
                        <polygon id="Shape" fill="#9FB5C2" fill-rule="nonzero" points="112.31416 129.079746 140.280479 157.030511 155.472103 141.73372 127.43185 113.499353"></polygon>
                        <path d="M144.656652,72.7616765 C144.667215,108.662164 118.619652,139.1813 83.3690987,144.566196 C76.1975257,145.629704 68.9097704,145.629704 61.7381974,144.566196 C23.760897,138.762987 -3.03304397,104.000453 0.813271416,65.5174144 C4.65782614,27.0326026 37.7907055,-1.65907258 76.1552779,0.272966843 C114.51985,2.20500672 144.64433,34.0836608 144.656652,72.7616765 Z M130.236052,72.7616765 C130.236052,40.6845009 104.41029,14.6799561 72.5536481,14.6799561 C40.6970059,14.6799561 14.8712446,40.6845009 14.8712446,72.7616765 C14.8712446,104.838853 40.6970059,130.843397 72.5536481,130.843397 C104.41029,130.843397 130.236052,104.838853 130.236052,72.7616765 Z" id="Combined-Shape" fill="#60C1FF" fill-rule="nonzero"></path>
                        <path d="M130.236052,72.7616765 C130.236052,104.838853 104.41029,130.843397 72.5536481,130.843397 C40.6970059,130.843397 14.8712446,104.838853 14.8712446,72.7616765 C14.8712446,40.6845009 40.6970059,14.6799561 72.5536481,14.6799561 C104.41029,14.6799561 130.236052,40.6845009 130.236052,72.7616765 Z" id="Shape" fill="#FFFFFF" opacity="0.623046875"></path>
                        <path d="M172.985599,204.328259 C181.433409,212.832779 195.130516,212.832779 203.576566,204.326487 C212.024377,195.820195 212.024377,182.028268 203.574806,173.523748 L162.786263,132.456384 L150.425245,144.895884 L139.861521,155.564642 L132.207618,163.267986 L172.985599,204.328259 Z" id="Shape" fill="#636672" fill-rule="nonzero"></path>
                        <polygon id="Shape" fill="#FFDA44" fill-rule="nonzero" points="150.432286 144.895884 139.850959 155.554007 139.861521 155.564642"></polygon>
                    </g>
                </g>
                <path d="M47.908069,342.512207 L39.5094208,344.972114 C38.4493842,345.282592 37.3383631,344.674954 37.0278856,343.614918 C36.9203735,343.247849 36.9203735,342.857648 37.0278856,342.490579 L39.4877927,334.091931 C40.0791089,332.073051 40.0791089,329.926949 39.4877927,327.908069 L37.0278856,319.509421 C36.717408,318.449384 37.3250457,317.338363 38.3850822,317.027886 C38.7521513,316.920374 39.1423517,316.920374 39.5094208,317.027886 L47.908069,319.487793 C49.926949,320.079109 52.073051,320.079109 54.091931,319.487793 L62.4905792,317.027886 C63.5506158,316.717408 64.6616369,317.325046 64.9721144,318.385082 C65.0796265,318.752151 65.0796265,319.142352 64.9721144,319.509421 L62.5122073,327.908069 C61.9208911,329.926949 61.9208911,332.073051 62.5122073,334.091931 L64.9721144,342.490579 C65.282592,343.550616 64.6749543,344.661637 63.6149178,344.972114 C63.2478487,345.079626 62.8576483,345.079626 62.4905792,344.972114 L54.091931,342.512207 C52.073051,341.920891 49.926949,341.920891 47.908069,342.512207 Z" id="Star" fill="#FEC007" transform="translate(51.000000, 331.000000) rotate(-315.000000) translate(-51.000000, -331.000000) "></path>
                <path d="M430.908069,65.5122073 L422.509421,67.9721144 C421.449384,68.282592 420.338363,67.6749543 420.027886,66.6149178 C419.920374,66.2478487 419.920374,65.8576483 420.027886,65.4905792 L422.487793,57.091931 C423.079109,55.073051 423.079109,52.926949 422.487793,50.908069 L420.027886,42.5094208 C419.717408,41.4493842 420.325046,40.3383631 421.385082,40.0278856 C421.752151,39.9203735 422.142352,39.9203735 422.509421,40.0278856 L430.908069,42.4877927 C432.926949,43.0791089 435.073051,43.0791089 437.091931,42.4877927 L445.490579,40.0278856 C446.550616,39.717408 447.661637,40.3250457 447.972114,41.3850822 C448.079626,41.7521513 448.079626,42.1423517 447.972114,42.5094208 L445.512207,50.908069 C444.920891,52.926949 444.920891,55.073051 445.512207,57.091931 L447.972114,65.4905792 C448.282592,66.5506158 447.674954,67.6616369 446.614918,67.9721144 C446.247849,68.0796265 445.857648,68.0796265 445.490579,67.9721144 L437.091931,65.5122073 C435.073051,64.9208911 432.926949,64.9208911 430.908069,65.5122073 Z" id="Star-Copy-2" fill="#FEC007" transform="translate(434.000000, 54.000000) rotate(-315.000000) translate(-434.000000, -54.000000) "></path>
                <path d="M5.90806899,298.809736 L5.53225641,298.919809 C4.48480864,299.226599 3.38698174,298.626177 3.0801914,297.57873 C2.97395614,297.21602 2.97395614,296.830453 3.0801914,296.467744 L3.19026435,296.091931 C3.78158061,294.073051 3.78158061,291.926949 3.19026435,289.908069 L3.0801914,289.532256 C2.77340105,288.484809 3.37382252,287.386982 4.42127028,287.080191 C4.78398013,286.973956 5.16954656,286.973956 5.53225641,287.080191 L5.90806899,287.190264 C7.92694898,287.781581 10.073051,287.781581 12.091931,287.190264 L12.4677436,287.080191 C13.5151914,286.773401 14.6130183,287.373823 14.9198086,288.42127 C15.0260439,288.78398 15.0260439,289.169547 14.9198086,289.532256 L14.8097356,289.908069 C14.2184194,291.926949 14.2184194,294.073051 14.8097356,296.091931 L14.9198086,296.467744 C15.226599,297.515191 14.6261775,298.613018 13.5787297,298.919809 C13.2160199,299.026044 12.8304534,299.026044 12.4677436,298.919809 L12.091931,298.809736 C10.073051,298.218419 7.92694898,298.218419 5.90806899,298.809736 Z" id="Star-Copy" fill="#FEC007" transform="translate(9.000000, 293.000000) rotate(-315.000000) translate(-9.000000, -293.000000) "></path>
                <path d="M372.408069,47.6484757 L371.594883,47.8866524 C370.534846,48.1971299 369.423825,47.5894922 369.113348,46.5294557 C369.005836,46.1623866 369.005836,45.7721862 369.113348,45.4051171 L369.351524,44.591931 C369.942841,42.573051 369.942841,40.426949 369.351524,38.408069 L369.113348,37.5948829 C368.80287,36.5348463 369.410508,35.4238251 370.470544,35.1133476 C370.837613,35.0058356 371.227814,35.0058356 371.594883,35.1133476 L372.408069,35.3515243 C374.426949,35.9428406 376.573051,35.9428406 378.591931,35.3515243 L379.405117,35.1133476 C380.465154,34.8028701 381.576175,35.4105078 381.886652,36.4705443 C381.994164,36.8376134 381.994164,37.2278138 381.886652,37.5948829 L381.648476,38.408069 C381.057159,40.426949 381.057159,42.573051 381.648476,44.591931 L381.886652,45.4051171 C382.19713,46.4651537 381.589492,47.5761749 380.529456,47.8866524 C380.162387,47.9941644 379.772186,47.9941644 379.405117,47.8866524 L378.591931,47.6484757 C376.573051,47.0571594 374.426949,47.0571594 372.408069,47.6484757 Z" id="Star-Copy-4" fill="#60C1FF" transform="translate(375.500000, 41.500000) rotate(-315.000000) translate(-375.500000, -41.500000) "></path>
                <path d="M442.408069,266.648476 L441.594883,266.886652 C440.534846,267.19713 439.423825,266.589492 439.113348,265.529456 C439.005836,265.162387 439.005836,264.772186 439.113348,264.405117 L439.351524,263.591931 C439.942841,261.573051 439.942841,259.426949 439.351524,257.408069 L439.113348,256.594883 C438.80287,255.534846 439.410508,254.423825 440.470544,254.113348 C440.837613,254.005836 441.227814,254.005836 441.594883,254.113348 L442.408069,254.351524 C444.426949,254.942841 446.573051,254.942841 448.591931,254.351524 L449.405117,254.113348 C450.465154,253.80287 451.576175,254.410508 451.886652,255.470544 C451.994164,255.837613 451.994164,256.227814 451.886652,256.594883 L451.648476,257.408069 C451.057159,259.426949 451.057159,261.573051 451.648476,263.591931 L451.886652,264.405117 C452.19713,265.465154 451.589492,266.576175 450.529456,266.886652 C450.162387,266.994164 449.772186,266.994164 449.405117,266.886652 L448.591931,266.648476 C446.573051,266.057159 444.426949,266.057159 442.408069,266.648476 Z" id="Star-Copy-6" fill="#60C1FF" transform="translate(445.500000, 260.500000) rotate(-315.000000) translate(-445.500000, -260.500000) "></path>
                <path d="M443.908069,137.809736 L443.532256,137.919809 C442.484809,138.226599 441.386982,137.626177 441.080191,136.57873 C440.973956,136.21602 440.973956,135.830453 441.080191,135.467744 L441.190264,135.091931 C441.781581,133.073051 441.781581,130.926949 441.190264,128.908069 L441.080191,128.532256 C440.773401,127.484809 441.373823,126.386982 442.42127,126.080191 C442.78398,125.973956 443.169547,125.973956 443.532256,126.080191 L443.908069,126.190264 C445.926949,126.781581 448.073051,126.781581 450.091931,126.190264 L450.467744,126.080191 C451.515191,125.773401 452.613018,126.373823 452.919809,127.42127 C453.026044,127.78398 453.026044,128.169547 452.919809,128.532256 L452.809736,128.908069 C452.218419,130.926949 452.218419,133.073051 452.809736,135.091931 L452.919809,135.467744 C453.226599,136.515191 452.626177,137.613018 451.57873,137.919809 C451.21602,138.026044 450.830453,138.026044 450.467744,137.919809 L450.091931,137.809736 C448.073051,137.218419 445.926949,137.218419 443.908069,137.809736 Z" id="Star-Copy-3" fill="#CDECFF" transform="translate(447.000000, 132.000000) rotate(-315.000000) translate(-447.000000, -132.000000) "></path>
                <path d="M21.908069,187.809736 L21.5322564,187.919809 C20.4848086,188.226599 19.3869817,187.626177 19.0801914,186.57873 C18.9739561,186.21602 18.9739561,185.830453 19.0801914,185.467744 L19.1902644,185.091931 C19.7815806,183.073051 19.7815806,180.926949 19.1902644,178.908069 L19.0801914,178.532256 C18.773401,177.484809 19.3738225,176.386982 20.4212703,176.080191 C20.7839801,175.973956 21.1695466,175.973956 21.5322564,176.080191 L21.908069,176.190264 C23.926949,176.781581 26.073051,176.781581 28.091931,176.190264 L28.4677436,176.080191 C29.5151914,175.773401 30.6130183,176.373823 30.9198086,177.42127 C31.0260439,177.78398 31.0260439,178.169547 30.9198086,178.532256 L30.8097356,178.908069 C30.2184194,180.926949 30.2184194,183.073051 30.8097356,185.091931 L30.9198086,185.467744 C31.226599,186.515191 30.6261775,187.613018 29.5787297,187.919809 C29.2160199,188.026044 28.8304534,188.026044 28.4677436,187.919809 L28.091931,187.809736 C26.073051,187.218419 23.926949,187.218419 21.908069,187.809736 Z" id="Star-Copy-5" fill="#CDECFF" transform="translate(25.000000, 182.000000) rotate(-315.000000) translate(-25.000000, -182.000000) "></path>
            </g>
        </g>
    </g>
</svg>