<?xml version="1.0" encoding="UTF-8"?>
<svg width="350px" height="347px" viewBox="0 0 350 347" version="1.1" xmlns="http://www.w3.org/2000/svg" xmlns:xlink="http://www.w3.org/1999/xlink">
    <!-- Generator: Sketch 50.2 (55047) - http://www.bohemiancoding.com/sketch -->
    <g id="Home" stroke="none" stroke-width="1" fill="none" fill-rule="evenodd">
        <g id="1440-copy-11" transform="translate(-156.000000, -1243.000000)" fill-rule="nonzero">
            <g id="Group-4" transform="translate(156.000000, 1243.000000)">
                <ellipse id="Oval-5" fill="#ADE0FF" cx="173.713235" cy="173.713235" rx="160.845588" ry="155.698529"></ellipse>
                <g id="startup">
                    <path d="M44.4793945,259.613104 C56.1462891,254.534041 69.2712891,260.338879 74.375,271.947194 C79.4793945,283.556189 73.6456055,296.616054 61.9793945,301.694437 C50.3125,306.048405 0,302.420212 0,302.420212 C0,302.420212 32.8125,263.966393 44.4793945,259.613104 Z" id="Shape" fill="#FFD15C"></path>
                    <g id="Group" transform="translate(17.089844, 191.136561)" fill="#FF5B3F">
                        <path d="M42.7020508,74.280701 C48.5351563,72.1040569 54.3689453,74.280701 57.2851563,80.0848586 C59.4726563,85.8890161 57.2851563,91.6938539 51.4520508,94.5955926 C45.6189453,96.7722367 21.5564453,95.3213673 21.5564453,95.3213673 C21.5564453,95.3213673 36.8682617,77.1831199 42.7020508,74.280701 Z" id="Shape"></path>
                        <path d="M52.9101563,45.259233 L100.305762,23.4927919 C80.6182617,-1.17606802 44.1601563,-6.98022558 17.9101563,11.1587021 C10.6182617,16.2377651 4.78515625,22.7676974 0.41015625,30.0227243 C19.3682617,26.3945306 39.0557617,32.1993684 52.9101563,45.259233 Z" id="Shape"></path>
                        <path d="M80.6182617,104.753719 L128.013867,82.9872775 C133.846973,114.18607 114.888867,144.659087 83.5344727,153.365664 C74.7844727,155.542308 66.0344727,156.268083 58.0138672,154.816533 C72.5976562,142.482443 81.3476562,124.343516 80.6182617,104.753719 Z" id="Shape"></path>
                    </g>
                    <path d="M300.416895,211.726934 C242.083789,266.868811 210.729395,268.319681 94.0625,301.695117 L63.4375,235.670019 C164.791895,169.644921 186.666895,147.153385 266.145605,139.171904 C287.291895,159.487475 299.6875,183.43056 300.416895,211.726934 Z" id="Shape" fill="#FFFFFF"></path>
                    <path d="M266.875,138.446809 C287.291895,158.762381 299.6875,182.705466 300.416895,211.001839 L350,144.250967 L266.875,138.446809 Z" id="Shape" fill="#FF5B3F"></path>
                    <path d="M51.7706055,237.120888 L85.3125,309.675919 C88.2293945,307.499275 91.1456055,304.596856 94.0625,301.695117 L63.4375,235.670019 C59.7918945,235.670019 55.4168945,236.395794 51.7706055,237.120888 Z" id="Shape" fill="#415A6B"></path>
                    <path d="M247.1875,25.9864099 C247.1875,25.9864099 258.125,22.3588964 260.3125,20.9073469 C262.5,19.4557973 267.604395,17.2798334 268.333105,16.5540587 C269.061816,15.8282839 272.708105,14.3774145 274.166211,15.1031893 C274.895605,15.8289641 279.999316,22.3588964 279.270605,23.8097657 C278.541211,25.2606351 277.8125,25.2606351 277.8125,25.2606351 C277.8125,25.2606351 279.270605,27.4372792 277.083105,28.8881485 C274.895605,30.3390179 269.0625,30.3390179 266.875,29.6139233 C264.6875,28.8881485 261.770605,28.163054 261.770605,28.163054 L250.103711,35.4187611 L247.1875,25.9864099 Z" id="Shape" fill="#FEC007"></path>
                    <path d="M238.4375,28.163054 L250.833105,23.083991 C250.833105,23.083991 254.478711,35.4180809 255.9375,36.8696304 L244.270605,42.673788 L238.4375,28.163054 Z" id="Shape" fill="#E8EAE9"></path>
                    <path d="M168.4375,255.259816 C168.4375,255.259816 167.708105,248.004109 174.270605,242.199951 C181.5625,236.395794 181.5625,229.865862 181.5625,229.865862 L165.520605,231.316731 C165.520605,231.316731 161.145605,234.944244 157.5,235.670019 C154.583105,236.395794 154.583105,236.395794 154.583105,236.395794 C154.583105,236.395794 150.9375,258.88733 168.4375,255.259816 Z" id="Shape" fill="#CED6E0"></path>
                    <path d="M132.708105,146.427611 C132.708105,146.427611 121.770605,169.644921 153.853711,180.528142 C186.666211,192.137137 204.895605,199.392164 204.895605,199.392164 C204.895605,199.392164 185.208105,213.902898 176.458105,221.158605 C167.708105,228.414312 159.6875,234.21847 159.6875,234.21847 C159.6875,234.21847 168.4375,244.375915 174.270605,247.278334 C180.103711,250.180753 187.395605,256.710685 187.395605,256.710685 L215.833105,223.335249 C215.833105,223.335249 238.4375,209.54961 240.625,203.019677 C242.8125,196.489745 239.895605,187.057394 234.791895,181.979011 C228.958105,176.900628 196.875,152.957543 196.875,152.957543 C196.875,152.957543 186.666895,129.740233 183.75,115.954593 C180.833105,102.168954 177.1875,93.4623772 177.1875,93.4623772 L132.708105,146.427611 Z" id="Shape" fill="#344A5E"></path>
                    <g id="Group" transform="translate(58.105469, 26.527850)" fill="#415A6B">
                        <path d="M120.540137,25.5782891 C120.540137,25.5782891 125.644531,24.8525143 134.394531,21.9507756 C143.144531,19.0483568 155.540137,13.2441992 162.102637,9.61668575 C168.665137,5.98917231 183.977637,0.184334548 183.977637,0.184334548 C183.977637,0.184334548 186.165137,13.2441992 192.727637,16.8717126 C192.727637,16.8717126 171.582031,26.3040639 166.477637,29.2058025 C161.373242,32.1075412 129.290137,47.3447302 124.185742,48.7955995 L120.540137,25.5782891 Z" id="Shape"></path>
                        <path d="M119.811426,24.1274197 C119.811426,24.1274197 124.91582,27.7549332 124.186426,43.7172167 C123.457031,59.6795003 122.72832,60.4045948 124.186426,70.5627208 C125.644531,80.7201666 138.04082,122.802179 138.04082,125.704598 C138.04082,128.607017 137.311426,125.704598 137.311426,125.704598 C137.311426,125.704598 125.644531,118.448891 124.91582,107.565671 C124.186426,96.6824501 114.707715,72.0135901 116.16582,64.7585632 C117.623926,57.5028562 119.811426,24.1274197 119.811426,24.1274197 Z" id="Shape"></path>
                        <path d="M17.7276367,87.2500989 C17.7276367,87.2500989 16.9982422,89.426743 8.97763672,83.6225855 C0.95703125,77.8184279 0.227636719,76.3668784 0.227636719,76.3668784 L10.4357422,75.6411036 C10.4364258,75.6411036 18.4570312,79.2692972 17.7276367,87.2500989 Z" id="Shape"></path>
                    </g>
                    <path d="M173.541895,59.3618463 C175,50.6552698 177.1875,44.8511123 180.104395,45.5762068 C192.5,47.7528509 193.229395,41.2229186 193.229395,40.4971438 C193.229395,39.7713691 193.229395,39.0462745 193.958789,37.594725 C194.688184,36.1431754 193.229395,35.4180809 193.229395,35.4180809 C193.958789,35.4180809 194.6875,34.6923061 193.958789,33.9672115 C193.229395,32.5163422 193.229395,31.7905674 193.229395,31.7905674 C193.229395,31.7905674 195.416895,31.0647926 196.146289,31.0647926 C196.875684,30.3390179 196.875684,30.3390179 196.146289,28.8881485 C194.688184,26.7115044 189.583789,20.9073469 189.583789,20.9073469 C189.583789,20.9073469 190.313184,20.9073469 189.583789,18.004928 C188.854395,15.1025091 183.021289,7.12170744 183.021289,7.12170744 L156.041895,23.8090855 L152.396289,40.4964636 C152.396289,40.4964636 146.563184,55.7329724 145.104395,59.3604859 L173.541895,59.3618463 Z" id="Shape" fill="#FEC007"></path>
                    <g id="Group" transform="translate(150.390625, 35.370467)" fill="#F3F3F3">
                        <polygon id="Shape" points="26.796875 12.3823842 21.6924805 16.0105778 23.1512695 23.9913795 26.796875 17.4614472"></polygon>
                        <polygon id="Shape" points="6.37998047 0.0482942912 21.6924805 16.0105778 15.1299805 23.2656047 0.546875 4.40158251"></polygon>
                    </g>
                    <path d="M172.8125,26.7121846 L175.729395,25.2613153 C175.729395,25.2613153 174.271289,22.3588964 175,19.4571577 C175.729395,16.5547389 177.916895,15.1038695 178.645605,12.9272254 C179.374316,10.7505813 184.478711,10.0248065 184.478711,10.0248065 C184.478711,10.0248065 185.936816,6.39729308 183.749316,3.4948742 C182.291211,-0.85841402 174.999316,-0.13263925 166.978711,1.31823009 C158.958105,2.76909943 150.208105,7.12238765 148.749316,10.7505813 C146.561816,14.3780947 150.207422,31.7912476 151.666211,36.1445358 C153.124316,40.497824 163.333105,33.242117 164.061816,29.6146035 C164.791211,25.9870901 163.332422,25.2613153 166.249316,23.0846712 C169.166895,20.1822523 172.8125,26.7121846 172.8125,26.7121846 Z" id="Shape" fill="#415A6B"></path>
                    <ellipse id="Oval" fill="#FFD15C" transform="translate(168.458557, 25.400384) rotate(-118.053950) translate(-168.458557, -25.400384) " cx="168.458557" cy="25.4003843" rx="5.83307146" ry="3.6274923"></ellipse>
                    <path d="M177.1875,47.7528509 C177.1875,47.7528509 172.8125,53.5570085 173.541895,62.2635849 C174.271289,70.9701614 175,90.5599584 175,90.5599584 C175,90.5599584 177.1875,83.3042513 179.375,79.6767378 C181.5625,75.3234496 183.020605,70.2443866 183.020605,65.1660038 C183.020605,60.0869408 180.103711,57.1852022 180.103711,57.1852022 L181.561816,56.4594274 C181.5625,56.4594274 179.375,47.7528509 177.1875,47.7528509 Z" id="Shape" fill="#344A5E"></path>
                    <g id="Group" transform="translate(18.457031, 127.197640)">
                        <path d="M77.7929688,14.8766823 L77.7929688,64.213722 C77.7929688,66.3903661 76.3348633,67.8412355 74.1473633,67.8412355 L4.14736328,67.8412355 C1.95986328,67.8412355 0.501757813,66.3903661 0.501757813,64.213722 L0.501757813,14.8766823 C0.501757813,12.7000382 1.95986328,11.2491688 4.14736328,11.2491688 L74.8767578,11.2491688 C76.3348633,11.2491688 77.7929688,12.7000382 77.7929688,14.8766823 Z" id="Shape" fill="#33D98E"></path>
                        <path d="M30.3973633,13.4258129 L30.3973633,6.89588062 C30.3973633,6.17010585 31.1267578,6.17010585 31.1267578,6.17010585 L47.1679688,6.17010585 C47.8973633,6.17010585 47.8973633,6.89588062 47.8973633,6.89588062 L47.8973633,13.4258129 L53.7304688,13.4258129 L53.7304688,6.89588062 C53.7304688,3.26836717 50.8135742,0.365948291 47.1679688,0.365948291 L31.1260742,0.365948291 C27.4804688,0.365948291 24.5635742,3.26836717 24.5635742,6.89588062 L24.5635742,13.4258129 L30.3973633,13.4258129 Z" id="Shape" fill="#415A6B"></path>
                    </g>
                    <path d="M72.1875,111.601305 C72.1875,111.601305 70.7293945,117.405462 70.7293945,118.131237 C70.7293945,118.857012 73.6462891,122.484525 74.375,124.66117 C75.1043945,126.837814 72.9168945,131.916877 72.1875,132.641971 C72.1875,132.641971 71.4581055,130.465327 70.7293945,129.739552 C70,129.013778 69.2712891,129.739552 67.8125,131.190422 C66.3543945,131.916196 64.8956055,134.092841 64.1668945,135.54371 C64.1668945,136.269485 63.4375,136.269485 62.7087891,136.269485 C61.9800781,136.269485 60.5212891,135.54371 60.5212891,134.818615 C60.5212891,134.818615 57.6043945,135.54439 56.8756836,134.818615 C56.8756836,134.818615 53.2300781,134.818615 52.5006836,134.092841 C52.5006836,134.092841 49.5837891,134.818615 49.5837891,131.916196 C50.3131836,129.739552 52.5006836,124.660489 53.9587891,122.483845 C55.4168945,118.856332 57.6043945,113.777269 59.7918945,110.87485 C64.8962891,102.168273 69.2712891,102.168273 69.2712891,102.168273 L72.1875,111.601305 Z" id="Shape" fill="#FEC007"></path>
                    <path d="M59.7918945,108.698886 C59.7918945,108.698886 71.4587891,110.87553 72.1875,115.954593 L79.4793945,105.071373 L67.0837891,95.6390213 L59.7918945,108.698886 Z" id="Shape" fill="#E8EAE9"></path>
                    <path d="M117.395605,47.7528509 C117.395605,47.7528509 115.9375,51.3803644 102.083105,58.6360715 C88.2287109,65.8917786 80.2081055,78.9516432 72.9162109,86.2066701 C65.6243164,93.461697 58.3331055,102.894048 58.3331055,102.894048 C58.3331055,102.894048 72.9162109,107.247336 75.8331055,113.777269 C75.8331055,113.777269 83.125,101.443179 87.5,97.0898907 C91.875,92.7366025 96.25,87.6575395 96.9793945,86.9324449 C97.7087891,86.2066701 110.833789,81.1282874 114.479395,79.6767378 C118.125,78.2251883 122.5,76.0492244 122.5,76.0492244 C122.5,76.0492244 128.333105,50.6552698 117.395605,47.7528509 Z" id="Shape" fill="#344A5E"></path>
                    <path d="M150.9375,36.1445358 C150.9375,36.1445358 148.020605,39.0469547 142.916895,39.0469547 C137.8125,39.7727295 134.896289,37.5960854 129.0625,36.8703106 C123.229395,36.1445358 118.125,44.1260177 117.395605,47.0277564 C116.666211,49.9301753 121.041211,113.052854 121.041211,120.307881 C121.041211,127.563588 121.770605,155.859962 121.770605,155.859962 C121.770605,155.859962 153.853711,157.310831 164.0625,152.232448 C174.270605,147.153385 177.1875,142.075003 178.645605,136.99594 C179.375,131.916877 175.728711,90.5606386 175.728711,90.5606386 C175.728711,90.5606386 177.186816,83.3049315 171.353711,75.3241298 C165.520605,67.3433281 150.9375,36.1445358 150.9375,36.1445358 Z" id="Shape" fill="#415A6B"></path>
                    <path d="M175,91.2857331 C175,91.2857331 175,83.3049315 172.8125,80.4025126 C170.625,76.7749991 166.979395,75.3234496 165.520605,72.4217109 C164.0625,69.519292 159.6875,60.087621 156.770605,56.4594274 C153.853711,52.8319139 150.208105,44.8504321 150.208105,44.8504321 L152.395605,42.673788 L146.5625,41.2229186 L150.9375,34.6929863 C150.9375,35.4187611 151.666895,36.1438556 151.666895,36.1438556 C152.396289,37.594725 153.854395,37.594725 155.3125,36.8696304 C157.5,41.2229186 160.416895,46.3019816 163.333105,49.9294951 C166.978711,55.008558 168.4375,62.2635849 169.166211,65.8917786 C169.166211,69.519292 174.270605,76.7749991 174.999316,79.677418 C175.729395,82.5791567 175,91.2857331 175,91.2857331 Z" id="Shape" fill="#344A5E"></path>
                    <g id="Group" transform="translate(28.710938, 138.080861)" fill="#E8FFFC">
                        <rect id="Rectangle-path" x="0.455957031" y="0.365948291" width="8.75" height="56.5927468"></rect>
                        <rect id="Rectangle-path" x="48.580957" y="0.365948291" width="8.75" height="56.5927468"></rect>
                    </g>
                    <path d="M158.229395,235.670019 C158.229395,235.670019 157.5,240.749082 158.958789,244.376596 C161.146289,248.729884 166.979395,248.004109 169.166895,249.455659 C171.354395,250.906528 167.708789,264.692167 170.625,273.398744 C173.541895,282.10532 176.458105,285.007739 174.270605,286.458608 C172.083105,287.909478 168.4375,285.007739 164.791211,280.654451 C161.145605,276.301163 154.583105,266.868811 153.853711,262.515523 C153.124316,257.43646 151.666211,255.259816 151.666211,255.259816 L148.020605,256.710685 L140,243.650821 L145.104395,240.748402 C145.104395,240.023307 150.9375,231.316731 158.229395,235.670019 Z" id="Shape" fill="#415A6B"></path>
                </g>
            </g>
        </g>
    </g>
</svg>