<?xml version="1.0" encoding="UTF-8"?>
<svg width="109px" height="109px" viewBox="0 0 38 38" version="1.1"
     xmlns="http://www.w3.org/2000/svg" xmlns:xlink="http://www.w3.org/1999/xlink">
    <!-- Generator: sketchtool 53.2 (72643) - https://sketchapp.com -->
    <title>9084E5B8-7A0B-4B56-A952-13F35893DDA2@1,5x</title>
    <desc>Created with sketchtool.</desc>
    <g id="Profile-/-drafts" stroke="none" stroke-width="1" fill="none" fill-rule="evenodd">
        <g id="04-Drafts-events" transform="translate(-575.000000, -594.600000)">
            <g id="Draft-Review-Copy" transform="translate(555.000000, 525.000000)">
                <g id="Group-2-Copy-4">
                    <g id="Icons-Color-38-px-/-Grant-Copy-2" transform="translate(20.000000, 70.000000)">
                        <circle id="Oval-2" fill="#43DC92" cx="19" cy="19" r="19"></circle>
                        <g id="Group" transform="translate(9.000000, 10.000000)" fill="#FFFFFF" fill-rule="nonzero">
                            <path d="M0.706287683,17.6175 L19.2937123,17.6175 C19.6899225,17.6175 20,17.3219595 20,16.9443243 L20,1.92101351 C20,1.54337838 19.6899225,1.24783784 19.2937123,1.24783784 L15.796727,1.24783784 L15.796727,0.673175676 C15.796727,0.295540541 15.4866494,0 15.0904393,0 C14.6942291,0 14.3841516,0.295540541 14.3841516,0.673175676 L14.3841516,1.24783784 L5.73643411,1.24783784 L5.73643411,0.673175676 C5.73643411,0.295540541 5.42635659,0 5.03014643,0 C4.63393626,0 4.32385874,0.295540541 4.32385874,0.673175676 L4.32385874,1.24783784 L0.706287683,1.24783784 C0.310077519,1.24783784 0,1.54337838 0,1.92101351 L0,16.9607432 C0,17.3219595 0.327304048,17.6175 0.706287683,17.6175 Z M1.41257537,2.59418919 L4.32385874,2.59418919 L4.32385874,2.95540541 C4.32385874,3.33304054 4.63393626,3.62858108 5.03014643,3.62858108 C5.42635659,3.62858108 5.73643411,3.33304054 5.73643411,2.95540541 L5.73643411,2.59418919 L14.3841516,2.59418919 L14.3841516,2.95540541 C14.3841516,3.33304054 14.6942291,3.62858108 15.0904393,3.62858108 C15.4866494,3.62858108 15.796727,3.33304054 15.796727,2.95540541 L15.796727,2.59418919 L18.6046512,2.59418919 L18.6046512,4.33459459 L1.41257537,4.33459459 L1.41257537,2.59418919 L1.41257537,2.59418919 Z M1.41257537,5.68094595 L18.5874246,5.68094595 L18.5874246,16.2875676 L1.41257537,16.2875676 L1.41257537,5.68094595 Z" id="Shape" stroke="#FFFFFF" stroke-width="0.3"></path>
                            <path d="M15.5254836,9.1125 L5.09951637,9.1125 C4.69308036,9.1125 4.375,9.37920732 4.375,9.72 C4.375,10.0607927 4.69308036,10.3275 5.09951637,10.3275 L15.5254836,10.3275 C15.9319196,10.3275 16.25,10.0607927 16.25,9.72 C16.25,9.37920732 15.9319196,9.1125 15.5254836,9.1125 Z" id="Shape"></path>
                            <path d="M9.94529178,12.15 L5.05470822,12.15 C4.67340849,12.15 4.375,12.4167073 4.375,12.7575 C4.375,13.0982927 4.67340849,13.365 5.05470822,13.365 L9.94529178,13.365 C10.3265915,13.365 10.625,13.0982927 10.625,12.7575 C10.625,12.4167073 10.3265915,12.15 9.94529178,12.15 Z" id="Shape"></path>
                        </g>
                    </g>
                </g>
            </g>
        </g>
    </g>
</svg>