<?xml version="1.0" encoding="UTF-8"?>
<svg width="266px" height="172px" viewBox="0 0 266 172" version="1.1" xmlns="http://www.w3.org/2000/svg" xmlns:xlink="http://www.w3.org/1999/xlink">
    <!-- Generator: sketchtool 53.2 (72643) - https://sketchapp.com -->
    <title>7B08B460-B746-4680-82E0-DD7A0E6D1E14@1,5x</title>
    <desc>Created with sketchtool.</desc>
    <defs>
        <path d="M77.4889748,199 C86.8571858,199 98.7676685,196.901372 105.935257,193.555201 C112.203254,192.60374 118.327413,198.434676 124.260124,196.901372 C150.718893,190.063128 172.098238,169.592597 172.098238,142.298754 C172.098238,99.5223652 124.078422,0.531417412 81.2763542,0.531417412 C38.4742861,0.531417412 0.0464077155,78.3015257 0.0464077155,121.077914 C0.0464077155,151.41503 17.7652037,176.325788 42.7869362,190.126915 C52.882309,195.695176 65.0422342,199 77.4889748,199 Z" id="path-1"></path>
        <polygon id="path-3" points="0 0 18.1605053 0 18.1605053 30.7371322 0 30.7371322"></polygon>
        <path d="M86.106267,60.2704626 C81.4417251,77.0473544 66.0540943,89.3595152 47.7908042,89.3595152 C29.527514,89.3595152 14.1398832,77.0473543 9.47534137,60.2704625 C9.23796851,60.2896943 8.99791767,60.2994985 8.75556706,60.2994985 C3.9200009,60.2994985 0,56.3963171 0,51.5814988 C0,47.0113316 3.53175459,43.2625107 8.02593647,42.8933391 L8.02593647,39.7648811 C8.02593647,17.8033511 25.8292742,1.34111318e-05 47.7908042,1.34111318e-05 C69.7523342,1.34111318e-05 87.5556719,17.8033511 87.5556719,39.7648811 L87.5556719,42.8933392 C92.0498532,43.2625114 95.5816071,47.0113321 95.5816071,51.5814988 C95.5816071,56.3963171 91.6616062,60.2994985 86.82604,60.2994985 C86.5836898,60.2994985 86.3436394,60.2896944 86.106267,60.2704626 Z" id="path-5"></path>
    </defs>
    <g id="Registration" stroke="none" stroke-width="1" fill="none" fill-rule="evenodd">
        <g id="03-Account-created-Copy-2" transform="translate(-603.000000, -322.000000)">
            <g id="Hello" transform="translate(602.242641, 295.000000)">
                <path d="M245.817996,96.3627054 L241.618671,97.5926589 C241.088653,97.7478977 240.533143,97.4440789 240.377904,96.9140606 C240.324148,96.7305261 240.324148,96.5354259 240.377904,96.3518913 L241.607857,92.1525672 C241.903515,91.1431272 241.903515,90.0700762 241.607857,89.0606362 L240.377904,84.8613121 C240.222665,84.3312938 240.526484,83.7757833 241.056502,83.6205445 C241.240037,83.5667885 241.435137,83.5667885 241.618671,83.6205445 L245.817996,84.850498 C246.827436,85.1461562 247.900487,85.1461562 248.909927,84.850498 L253.109251,83.6205445 C253.639269,83.4653057 254.194779,83.7691246 254.350018,84.2991428 C254.403774,84.4826774 254.403774,84.6777776 254.350018,84.8613121 L253.120065,89.0606362 C252.824407,90.0700762 252.824407,91.1431272 253.120065,92.1525672 L254.350018,96.3518913 C254.505257,96.8819096 254.201438,97.4374202 253.67142,97.5926589 C253.487885,97.646415 253.292785,97.646415 253.109251,97.5926589 L248.909927,96.3627054 C247.900487,96.0670473 246.827436,96.0670473 245.817996,96.3627054 Z" id="Star-Copy-2" fill="#FEC007" transform="translate(247.363961, 90.606602) rotate(-315.000000) translate(-247.363961, -90.606602) "></path>
                <path d="M214.730263,55.3599651 L214.730263,55.3599651 C214.471848,55.435653 214.201004,55.2875236 214.125316,55.0291088 C214.099107,54.939625 214.099107,54.8445023 214.125316,54.7550185 L214.125316,54.7550185 C214.288931,54.1964034 214.288931,53.6025865 214.125316,53.0439713 L214.125316,53.0439713 C214.049628,52.7855565 214.197758,52.5147127 214.456173,52.4390248 C214.545656,52.4128156 214.640779,52.4128156 214.730263,52.4390248 L214.730263,52.4390248 C215.288878,52.6026394 215.882695,52.6026394 216.44131,52.4390248 L216.44131,52.4390248 C216.699725,52.3633368 216.970569,52.5114662 217.046257,52.769881 C217.072466,52.8593648 217.072466,52.9544875 217.046257,53.0439713 L217.046257,53.0439713 C216.882642,53.6025865 216.882642,54.1964034 217.046257,54.7550185 L217.046257,54.7550185 C217.121945,55.0134334 216.973815,55.2842771 216.7154,55.3599651 C216.625917,55.3861743 216.530794,55.3861743 216.44131,55.3599651 L216.44131,55.3599651 C215.882695,55.1963505 215.288878,55.1963505 214.730263,55.3599651 Z" id="Star-Copy-4" fill="#60C1FF" transform="translate(215.585786, 53.899495) scale(1, -1) rotate(315.000000) translate(-215.585786, -53.899495) "></path>
                <path d="M230.161141,159.225634 L229.469374,159.428248 C228.939355,159.583487 228.383845,159.279668 228.228606,158.74965 C228.17485,158.566115 228.17485,158.371015 228.228606,158.187481 L228.43122,157.495713 C228.726878,156.486273 228.726878,155.413222 228.43122,154.403782 L228.228606,153.712014 C228.073367,153.181996 228.377186,152.626485 228.907204,152.471247 C229.090739,152.417491 229.285839,152.417491 229.469374,152.471247 L230.161141,152.673861 C231.170581,152.969519 232.243632,152.969519 233.253072,152.673861 L233.94484,152.471247 C234.474858,152.316008 235.030369,152.619827 235.185608,153.149845 C235.239364,153.33338 235.239364,153.52848 235.185608,153.712014 L234.982993,154.403782 C234.687335,155.413222 234.687335,156.486273 234.982993,157.495713 L235.185608,158.187481 C235.340846,158.717499 235.037027,159.273009 234.507009,159.428248 C234.323475,159.482004 234.128374,159.482004 233.94484,159.428248 L233.253072,159.225634 C232.243632,158.929976 231.170581,158.929976 230.161141,159.225634 Z" id="Star-Copy-6" fill="#60C1FF" transform="translate(231.707107, 155.949747) rotate(-315.000000) translate(-231.707107, -155.949747) "></path>
                <path d="M260.454034,114.147509 L260.266128,114.202545 C259.742404,114.35594 259.193491,114.055729 259.040096,113.532006 C258.986978,113.350651 258.986978,113.157867 259.040096,112.976512 L259.095132,112.788606 C259.39079,111.779166 259.39079,110.706115 259.095132,109.696675 L259.040096,109.508769 C258.886701,108.985045 259.186911,108.436132 259.710635,108.282736 C259.89199,108.229619 260.084773,108.229619 260.266128,108.282736 L260.454034,108.337773 C261.463474,108.633431 262.536526,108.633431 263.545966,108.337773 L263.733872,108.282736 C264.257596,108.129341 264.806509,108.429552 264.959904,108.953276 C265.013022,109.134631 265.013022,109.327414 264.959904,109.508769 L264.904868,109.696675 C264.60921,110.706115 264.60921,111.779166 264.904868,112.788606 L264.959904,112.976512 C265.113299,113.500236 264.813089,114.04915 264.289365,114.202545 C264.10801,114.255663 263.915227,114.255663 263.733872,114.202545 L263.545966,114.147509 C262.536526,113.85185 261.463474,113.85185 260.454034,114.147509 Z" id="Star-Copy-3" fill="#CDECFF" transform="translate(262.000000, 111.242641) rotate(-315.000000) translate(-262.000000, -111.242641) "></path>
                <path d="M3.45403449,150.147509 L3.2661282,150.202545 C2.74240432,150.35594 2.19349087,150.055729 2.0400957,149.532006 C1.98697807,149.350651 1.98697807,149.157867 2.0400957,148.976512 L2.09513218,148.788606 C2.39079031,147.779166 2.39079031,146.706115 2.09513218,145.696675 L2.0400957,145.508769 C1.88670052,144.985045 2.18691126,144.436132 2.71063514,144.282736 C2.89199007,144.229619 3.08477328,144.229619 3.2661282,144.282736 L3.45403449,144.337773 C4.46347449,144.633431 5.53652551,144.633431 6.54596551,144.337773 L6.7338718,144.282736 C7.25759568,144.129341 7.80650913,144.429552 7.9599043,144.953276 C8.01302193,145.134631 8.01302193,145.327414 7.9599043,145.508769 L7.90486782,145.696675 C7.60920969,146.706115 7.60920969,147.779166 7.90486782,148.788606 L7.9599043,148.976512 C8.11329948,149.500236 7.81308874,150.04915 7.28936486,150.202545 C7.10800993,150.255663 6.91522672,150.255663 6.7338718,150.202545 L6.54596551,150.147509 C5.53652551,149.85185 4.46347449,149.85185 3.45403449,150.147509 Z" id="Star-Copy-5" fill="#CDECFF" transform="translate(5.000000, 147.242641) rotate(-315.000000) translate(-5.000000, -147.242641) "></path>
                <path d="M19.8179955,75.3627054 L15.6186714,76.5926589 C15.0886532,76.7478977 14.5331426,76.4440789 14.3779038,75.9140606 C14.3241478,75.7305261 14.3241478,75.5354259 14.3779038,75.3518913 L15.6078574,71.1525672 C15.9035155,70.1431272 15.9035155,69.0700762 15.6078574,68.0606362 L14.3779038,63.8613121 C14.222665,63.3312938 14.5264839,62.7757833 15.0565022,62.6205445 C15.2400367,62.5667885 15.4351369,62.5667885 15.6186714,62.6205445 L19.8179955,63.850498 C20.8274355,64.1461562 21.9004865,64.1461562 22.9099265,63.850498 L27.1092506,62.6205445 C27.6392689,62.4653057 28.1947795,62.7691246 28.3500183,63.2991428 C28.4037743,63.4826774 28.4037743,63.6777776 28.3500183,63.8613121 L27.1200647,68.0606362 C26.8244066,69.0700762 26.8244066,70.1431272 27.1200647,71.1525672 L28.3500183,75.3518913 C28.505257,75.8819096 28.2014382,76.4374202 27.6714199,76.5926589 C27.4878854,76.646415 27.2927852,76.646415 27.1092506,76.5926589 L22.9099265,75.3627054 C21.9004865,75.0670473 20.8274355,75.0670473 19.8179955,75.3627054 Z" id="Star" fill="#FEC007" transform="translate(21.363961, 69.606602) rotate(-315.000000) translate(-21.363961, -69.606602) "></path>
                <path d="M13.4540345,168.147509 L13.2661282,168.202545 C12.7424043,168.35594 12.1934909,168.055729 12.0400957,167.532006 C11.9869781,167.350651 11.9869781,167.157867 12.0400957,166.976512 L12.0951322,166.788606 C12.3907903,165.779166 12.3907903,164.706115 12.0951322,163.696675 L12.0400957,163.508769 C11.8867005,162.985045 12.1869113,162.436132 12.7106351,162.282736 C12.8919901,162.229619 13.0847733,162.229619 13.2661282,162.282736 L13.4540345,162.337773 C14.4634745,162.633431 15.5365255,162.633431 16.5459655,162.337773 L16.7338718,162.282736 C17.2575957,162.129341 17.8065091,162.429552 17.9599043,162.953276 C18.0130219,163.134631 18.0130219,163.327414 17.9599043,163.508769 L17.9048678,163.696675 C17.6092097,164.706115 17.6092097,165.779166 17.9048678,166.788606 L17.9599043,166.976512 C18.1132995,167.500236 17.8130887,168.04915 17.2893649,168.202545 C17.1080099,168.255663 16.9152267,168.255663 16.7338718,168.202545 L16.5459655,168.147509 C15.5365255,167.85185 14.4634745,167.85185 13.4540345,168.147509 Z" id="Star-Copy" fill="#FEC007" transform="translate(15.000000, 165.242641) rotate(-315.000000) translate(-15.000000, -165.242641) "></path>
                <circle id="Oval" fill="#6FF3FF" cx="117.757359" cy="124" r="75"></circle>
                <g id="Group-2" transform="translate(39.757359, 0.000000)">
                    <mask id="mask-2" fill="white">
                        <use xlink:href="#path-1"></use>
                    </mask>
                    <g id="Mask"></g>
                    <g mask="url(#mask-2)">
                        <g transform="translate(34.777457, 27.291312)">
                            <g id="Rectangle-2-Copy-2" stroke-width="1" fill="none" transform="translate(38.832371, 86.659812)">
                                <mask id="mask-4" fill="white">
                                    <use xlink:href="#path-3"></use>
                                </mask>
                                <use id="Mask" fill="#EEB45B" xlink:href="#path-3"></use>
                                <path d="M0,9.66476838 C4.09709042,10.7321707 7.12384131,11.2658719 9.08025267,11.2658719 C11.036664,11.2658719 14.0634149,10.7321707 18.1605053,9.66476838 L18.1605053,40.4019006 L0,40.4019006 L0,9.66476838 Z" fill="#F8C06A" mask="url(#mask-4)"></path>
                            </g>
                            <g id="Rectangle" stroke-width="1" fill="none" transform="translate(0.017027, 5.447911)">
                                <mask id="mask-6" fill="white">
                                    <use xlink:href="#path-5"></use>
                                </mask>
                                <use id="Mask" fill="#FFCE87" xlink:href="#path-5"></use>
                                <path d="M48.1094089,75.1038673 C53.2122744,75.1038673 57.3489642,70.9896095 57.3489642,65.9144154 C57.3489642,60.8392212 38.8698535,60.8392212 38.8698535,65.9144154 C38.8698535,70.9896095 43.0065434,75.1038673 48.1094089,75.1038673 Z" id="Oval-7" fill="#FFFFFF" mask="url(#mask-6)"></path>
                            </g>
                            <path d="M76.1027074,5.93292177 C86.0744272,8.1833738 86.0744272,5.93292177 90.6025506,5.93292177 C92.3210713,5.93292177 91.5796039,9.02345531 88.0142271,12.1404881 C87.1388391,12.9057966 85.4067621,13.7544767 82.817996,14.6865286 C88.0076991,21.0537339 90.6025506,28.3323705 90.6025506,36.5224382 C90.6025506,47.8948721 89.4366073,50.8424602 86.7719015,57.4944937 C84.3329046,25.2462796 71.976911,17.5275023 49.951377,17.5275023 C33.0883031,17.5275023 24.8872542,18.6885678 16.9203314,30.2647568 C13.7429388,34.881608 9.20239297,44.8757358 11.07399,57.4944937 C2.64769164,43.4432055 8.50889965,23.6574934 9.20239297,22.340895 C14.6843281,11.9334301 21.1982618,-2.70536265 63.7619212,1.58281379 C66.7356805,1.8824122 73.0158339,0.602935058 76.1027074,0.602935058 C79.1895809,0.602935058 74.648943,5.60483123 76.1027074,5.93292177 Z" id="Rectangle" fill="#964E18"></path>
                            <path d="M18,40.6870694 C20.5,39.5623565 23,39 25.5,39 C28,39 30.5,39.5623565 33,40.6870694 L33,42.6870694 C29.6751277,41.7180011 27.1751277,41.2334669 25.5,41.2334669 C23.8248723,41.2334669 21.3248723,41.7180011 18,42.6870694 L18,40.6870694 Z" id="Rectangle-6-Copy" fill="#964E18"></path>
                            <path d="M59,40.6870694 C61.5,39.5623565 64,39 66.5,39 C69,39 71.5,39.5623565 74,40.6870694 L74,42.6870694 C70.6751277,41.7180011 68.1751277,41.2334669 66.5,41.2334669 C64.8248723,41.2334669 62.3248723,41.7180011 59,42.6870694 L59,40.6870694 Z" id="Rectangle-6-Copy-2" fill="#964E18"></path>
                            <g id="Group" stroke-width="1" fill="none" transform="translate(62.145071, 47.592638)">
                                <rect id="Rectangle-7" fill="#FFFFFF" x="0" y="0" width="9.23955535" height="12.9919837" rx="4.61977768"></rect>
                                <ellipse id="Oval-2" fill="#000000" cx="4.61977768" cy="6.13510343" rx="2.48757259" ry="2.52621906"></ellipse>
                                <ellipse id="Oval-3" fill="#FFFFFF" cx="5.3305127" cy="5.41332655" rx="1.06610254" ry="1.08266531"></ellipse>
                            </g>
                            <g id="Group-Copy" stroke-width="1" fill="none" transform="translate(22.638007, 47.592638)">
                                <rect id="Rectangle-7" fill="#FFFFFF" x="0" y="0" width="9.23955535" height="12.9919837" rx="4.61977768"></rect>
                                <ellipse id="Oval-2" fill="#000000" cx="4.61977768" cy="6.13510343" rx="2.48757259" ry="2.52621906"></ellipse>
                                <ellipse id="Oval-3" fill="#FFFFFF" cx="5.3305127" cy="5.41332655" rx="1.06610254" ry="1.08266531"></ellipse>
                            </g>
                            <path d="M25.4769841,169.61006 L70.2992732,170.073401 C71.1515289,176.784529 71.5776567,184.124072 71.5776567,192.092032 C71.5776567,200.059991 71.0950732,204.178339 70.1299062,204.447076 L25.4770225,204.447076 C25.8334519,200.704026 25.7921264,195.443287 25.3530459,188.66486 C24.9139654,181.886432 24.9552781,175.534832 25.4769841,169.61006 Z" id="Rectangle-4" fill="#5D5684"></path>
                            <path d="M8.10830183,189.614469 L21.4997987,189.614469 C21.4428162,181.833777 21.6684846,169.863068 22.1768039,153.702345 C22.6851232,137.541621 23.7003694,126.543735 25.2225425,120.708688 L25.2225425,173.708688 L70.6819592,173.858312 L71.2225425,121.824825 C72.9492633,130.236825 74.072665,138.715963 74.5927478,147.262237 C75.3728719,160.08165 81.6758198,170.768893 94.0610746,164.075489 C99.4794518,161.147217 111.800748,144.269909 115.974892,133.92948 C118.539752,131.741069 133.008157,112.034305 130.417658,109.801865 C128.708247,108.328728 126.657091,111.446225 123.473028,114.92707 C126.396008,109.469335 129.406087,106.412082 127.899047,104.900405 C125.590542,102.584796 122.929707,108.285907 119.670741,112.788756 C121.149523,106.733425 124.949469,100.742742 122.337781,99.7281101 C119.726092,98.7134784 118.360605,104.759025 114.722801,111.446225 C115.455744,107.60849 117.964666,99.7214253 115.059805,99.3344567 C111.89219,98.9124855 111.722555,105.298331 109.121408,114.427808 C106.16118,112.198057 105.221918,105.875766 102.00388,106.733425 C98.7858424,107.591084 106.923184,124.990688 104.964365,129.312545 C95.83147,149.462997 87.0017738,154.596522 86.4595236,150.047734 C84.4519489,133.206738 84.9452734,128.941708 83.8236011,122.276803 C82.1500096,112.33243 73.2498599,104.87585 57.1231519,99.9070632 C57.4229358,106.342817 54.3520398,109.488307 47.9104642,109.343533 C41.4688885,109.198759 38.4916481,106.053269 38.9787431,99.9070632 C28.3045129,101.549523 20.3351854,106.68834 15.0707607,115.323515 C9.80633592,123.95869 7.48551631,148.722341 8.10830183,189.614469 Z" id="Path-3" fill="#FFCE87"></path>
                            <path d="M23.2390041,133.143716 C23.2390041,133.143716 23.9001835,128.998707 25.2225425,120.708688 L25.2225425,173.708688 L71.2225425,173.858312 L71.2225425,121.824825 C72.0041988,126.529291 72.6471213,130.466859 73.15131,133.63753 C77.695023,133.63753 80.910563,133.63753 85.3775544,132.682991 C84.7890711,128.404463 84.2710867,124.935734 83.8236011,122.276803 C82.1500096,112.33243 73.2498599,104.87585 57.1231519,99.9070632 C57.4229358,106.342817 54.3520398,109.488307 47.9104642,109.343533 C41.4688885,109.198759 38.4916481,106.053269 38.9787431,99.9070632 C28.3045129,101.549523 20.3351854,106.68834 15.0707607,115.323515 C13.1739629,118.43481 11.2702117,124.583735 10.5267801,130.938778 C10.5267801,130.938778 23.2390041,133.143716 23.2390041,133.143716 Z" id="Path-3-Copy" fill="#5898FF"></path>
                        </g>
                    </g>
                </g>
            </g>
        </g>
    </g>
</svg>