<?xml version="1.0" encoding="UTF-8"?>
<svg width="154px" height="154px" viewBox="0 0 154 154" version="1.1" xmlns="http://www.w3.org/2000/svg" xmlns:xlink="http://www.w3.org/1999/xlink">
    <!-- Generator: sketchtool 53.2 (72643) - https://sketchapp.com -->
    <title>050DADC6-B4CE-45EB-8ED1-34E059B07513@1,5x</title>
    <desc>Created with sketchtool.</desc>
    <defs>
        <path d="M102,51 C102,54.7010859 101.606543,58.3107305 100.85509,61.7890898 C98.9129062,70.8067266 94.5894609,78.9354492 88.5692695,85.4885508 C87.3807305,86.7832734 86.1254531,88.017832 84.8098125,89.1834609 C78.4483594,94.8205547 70.6692656,98.8921875 62.0741719,100.790543 C61.7161758,100.871824 61.3539961,100.94673 60.9916172,101.019445 C60.3130781,101.154715 59.6301562,101.275441 58.9412578,101.383816 C57.2114414,101.654355 55.4545312,101.839629 53.6727187,101.93127 C52.7881875,101.97709 51.8972813,102 51,102 C47.0261836,102 43.160543,101.54618 39.4490977,100.686551 C37.623457,100.266 35.8374609,99.7456406 34.0931016,99.1316484 C28.4394727,97.1458359 23.2394648,94.1920195 18.6972773,90.465832 C16.3138242,88.5152812 14.1114609,86.3503711 12.1192734,84.0043711 C12.021457,83.8898203 11.9236406,83.7732773 11.8258242,83.6567344 C11.1618281,82.8636445 10.5227344,82.0476445 9.90854297,81.212918 C3.68036719,72.7572773 0,62.307457 0,51 C0,44.2741758 1.30109766,37.8523594 3.66781641,31.9738125 C4.24435547,30.5396367 4.88344922,29.1385312 5.58509766,27.7730859 C7.14,24.7359961 8.99273437,21.8758125 11.1014648,19.2321797 C11.5907461,18.6159961 12.0965625,18.0123633 12.6147305,17.421082 C14.9003672,14.8107187 17.448375,12.4334414 20.216918,10.3352695 C20.6581875,10.0001836 21.105832,9.67326562 21.5574609,9.35272266 C24.1991016,7.48126172 27.0280078,5.85563672 30.0067266,4.50672656 C36.4098164,1.61128125 43.5165469,0 51,0 C59.2287305,0 67.0014492,1.94835937 73.8834609,5.40799219 C76.3689141,6.65908594 78.7378242,8.10780469 80.9714648,9.73163672 C81.7625625,10.3081758 82.538918,10.9056328 83.2945547,11.5279922 C85.9465547,13.6990781 88.3758281,16.1325352 90.5407383,18.7887188 C96.9021914,26.5843477 100.998926,36.2972578 101.839828,46.9261758 C101.945813,48.2709023 102,49.6281797 102,51 Z" id="path-1"></path>
    </defs>
    <g id="Home" stroke="none" stroke-width="1" fill="none" fill-rule="evenodd">
        <g id="1440-copy-11" transform="translate(-234.000000, -2238.000000)">
            <g id="Group-16" transform="translate(234.000000, 2238.000000)">
                <circle id="Oval-3" fill="#FFEDAB" opacity="0.480691964" cx="77" cy="77" r="77"></circle>
                <g id="volunteer" transform="translate(26.000000, 26.000000)">
                    <mask id="mask-2" fill="white">
                        <use xlink:href="#path-1"></use>
                    </mask>
                    <path stroke="#FFFFFF" stroke-width="4.63636364" d="M104.318182,51 C104.318182,54.8291856 103.914909,58.6037149 103.121306,62.2771787 C101.120312,71.5678772 96.6683665,80.0990987 90.277003,87.0562285 C89.03176,88.4127209 87.7193267,89.702839 86.3472558,90.9184638 C79.5923027,96.9042509 71.4296207,101.098302 62.5874405,103.051189 C62.2448035,103.128983 61.8927618,103.203013 61.444838,103.292892 C60.7457381,103.43226 60.0327879,103.558793 59.2994614,103.674156 C57.4713858,103.960063 55.6349571,104.151595 53.7926439,104.246347 C52.8680407,104.294243 51.9371475,104.318182 51,104.318182 C46.8964581,104.318182 42.8543995,103.854822 38.9287147,102.94557 C37.0300349,102.508194 35.1605934,101.964987 33.3248626,101.318833 C27.4622456,99.2596142 22.016844,96.1874603 17.2291129,92.2598387 C14.7408178,90.2234883 12.4378819,87.9609428 10.3563682,85.5097389 C10.2771117,85.416653 10.2771117,85.416653 10.200056,85.3253667 C10.1240673,85.2350881 10.1240673,85.2350881 10.0483559,85.1448786 C9.35940932,84.3219874 8.69018734,83.4686147 8.04203513,82.5877327 C1.35063407,73.5031974 -2.31818182,62.5248261 -2.31818182,51 C-2.31818182,44.0971942 -1.00553,37.3745244 1.5169254,31.1091537 C2.12111101,29.6062055 2.79010831,28.1402193 3.52162781,26.7166489 C5.1395444,23.5564774 7.07354374,20.5642945 9.28601267,17.7906179 C9.78886603,17.1573421 10.3170775,16.5256252 10.8706404,15.893955 C13.2637814,13.160814 15.9278278,10.6771071 18.8149647,8.48905881 C19.2605643,8.15068476 19.7248779,7.81067434 20.2173692,7.46113048 C22.9882504,5.49810948 25.9466451,3.80052856 29.0515725,2.39446528 C35.889792,-0.697743476 43.3324637,-2.31818182 51,-2.31818182 C59.4190543,-2.31818182 67.5631066,-0.363909865 74.9257562,3.33734314 C77.5107129,4.63852362 79.9879472,6.15059156 82.3368045,7.85818684 C83.1885374,8.47891585 83.9972577,9.10351948 84.7630286,9.73423877 C87.5366143,12.0048621 90.0756782,14.5488402 92.3368062,17.3230766 C99.1395327,25.6594629 103.290025,35.8633759 104.150843,46.7440335 C104.262214,48.1571075 104.318182,49.5751205 104.318182,51 Z"></path>
                    <g id="Group" mask="url(#mask-2)" fill-rule="nonzero">
                        <g transform="translate(29.357599, 18.074574)" id="Shape">
                            <path d="M33.2733164,85.9738936 C31.4476758,85.5533428 29.7985292,90.447699 28.0541698,89.8337068 C22.4005409,87.8478943 16.3428374,93.5598943 11.8006499,89.8337068 C9.41719677,87.883156 7.21483349,85.7182459 5.22264599,83.3722459 L5.94349219,49.5486914 L33.2733164,49.5486914 L33.2733164,85.9738936 Z" fill="#DEAB85"></path>
                            <path d="M12.5214961,92.6995526 C10.138043,90.7490018 7.93567969,88.2403388 5.94349219,85.8943388 L5.94349219,49.5486914 L12.5214961,49.5486914 L12.5214961,92.6995526 Z" fill="#BD8062"></path>
                            <path d="M43.1975977,32.0849766 C41.9823633,34.276582 41.9803711,39.1958906 41.9803711,39.2239805 C41.9803711,39.2239805 41.8907227,58.1838281 28.196625,58.1838281 C23.0767031,58.1838281 15.8689687,58.1838281 15.8689687,58.1838281 C5.76280078,58.1838281 0.0537890625,47.8401914 0.0537890625,38.9404922 L0.0537890625,19.1750039 C0.0537890625,16.8903633 1.90771875,15.0364336 4.19235937,15.0364336 C5.33567578,15.0364336 6.36982031,15.5008125 7.11908203,16.2482813 C7.86834375,16.997543 8.33092969,18.0334805 8.33092969,19.1748047 L8.33092969,10.7940703 C8.33092969,8.50763672 10.1848594,6.6555 12.4695,6.6555 C13.6128164,6.6555 14.6469609,7.11808594 15.3960234,7.86714844 C16.1452852,8.61660938 16.6078711,9.65075391 16.6078711,10.7938711 L16.6078711,4.34077734 C16.6078711,2.05434375 18.4618008,0.202207031 20.7482344,0.202207031 C21.8895586,0.202207031 22.9256953,0.664792969 23.6747578,1.41405469 C24.4222266,2.16351563 24.8864062,3.19766016 24.8864062,4.34077734 L24.8864062,9.55214063 C24.8864062,7.26570703 26.7383437,5.41357031 29.0231836,5.41357031 C30.1665,5.41357031 31.2006445,5.87615625 31.9499062,6.62541797 C32.699168,7.37467969 33.1615547,8.40882422 33.1615547,9.55194141 L33.1615547,31.7534766 C33.585293,30.2900156 34.176375,28.8654023 34.9344023,27.5007539 C36.199043,25.2179063 39.0745664,24.3947344 41.3576133,25.6609688 C43.6408594,26.9281992 44.463832,29.8039219 43.1975977,32.0849766 Z" fill="#DEAB85"></path>
                            <path d="M18.6831328,58.1840273 C16.9999336,58.1840273 15.8689687,58.1840273 15.8689687,58.1840273 C5.76280078,58.1840273 0.0537890625,47.8403906 0.0537890625,38.9408906 L0.0537890625,19.1754023 C0.0537890625,16.8907617 1.90771875,15.036832 4.19235937,15.036832 C4.68662109,15.036832 5.15976562,15.1230937 5.59924219,15.2830664 C4.00748437,15.8582109 2.86775391,17.3848242 2.86775391,19.1754023 L2.86775391,38.9408906 C2.86795312,47.8403906 8.57696484,58.1840273 18.6831328,58.1840273 Z" fill="#BD8062"></path>
                            <path d="M8.33092969,30.1493672 L8.33092969,10.8908906 C8.33092969,8.62975781 10.1037773,6.71307422 12.3641133,6.65729297 C12.896625,6.64414453 13.4058281,6.73080469 13.876582,6.90233203 C12.2848242,7.47747656 11.1450938,9.00408984 11.1450938,10.7944687 L11.1450938,30.1495664 C11.1450938,30.9267187 10.5151641,31.5564492 9.73821094,31.5564492 L9.73821094,31.5564492 C8.96085938,31.5564492 8.33092969,30.9265195 8.33092969,30.1493672 Z" fill="#BD8062"></path>
                            <path d="M16.6076719,28.4169609 L16.6076719,4.341375 C16.6076719,2.08024219 18.3805195,0.163558594 20.6408555,0.107777344 C21.1733672,0.0946289063 21.6825703,0.181289063 22.1533242,0.352816406 C20.5615664,0.927960938 19.4218359,2.45457422 19.4218359,4.24515234 L19.4218359,28.4173594 C19.4218359,29.1945117 18.7919063,29.8242422 18.0149531,29.8242422 L18.0149531,29.8242422 C17.2378008,29.824043 16.6076719,29.1941133 16.6076719,28.4169609 Z" fill="#BD8062"></path>
                            <path d="M24.8866055,29.7642773 L24.8866055,9.55273828 C24.8866055,7.29160547 26.6594531,5.37492187 28.9197891,5.31914062 C29.4523008,5.30599219 29.9615039,5.39265234 30.4322578,5.56417969 C28.8405,6.13932422 27.7007695,7.6659375 27.7007695,9.45651562 L27.7007695,29.7646758 C27.7007695,30.5418281 27.0708398,31.1715586 26.2938867,31.1715586 L26.2938867,31.1715586 C25.5165352,31.1715586 24.8866055,30.5416289 24.8866055,29.7642773 Z" fill="#BD8062"></path>
                            <path d="M42.1670391,26.2281445 C40.1848125,25.8024141 38.077875,26.6925234 37.0453242,28.5568125 C35.3023594,31.6963008 34.4369531,35.1593203 34.4793867,38.6558086 C29.1353438,38.6558086 24.6913711,42.4995352 23.7602227,47.5722422 C23.6620078,48.1079414 23.2008164,48.4998047 22.6563516,48.4998047 L22.6563516,48.4998047 C21.9843867,48.4998047 21.4642266,47.9129063 21.5407266,47.2453242 C22.1626875,41.8160156 26.7724102,37.6005469 32.3686641,37.6005469 C32.3264297,34.1040586 33.1918359,30.6408398 34.9346016,27.5015508 C36.1992422,25.2187031 39.0747656,24.3955313 41.3578125,25.6617656 C41.6516602,25.8253242 41.9223984,26.0153789 42.1670391,26.2281445 Z" fill="#BD8062"></path>
                        </g>
                    </g>
                </g>
            </g>
        </g>
    </g>
</svg>