<?xml version="1.0" encoding="UTF-8"?>
<svg width="109px" height="109px" viewBox="0 0 38 38" version="1.1"
     xmlns="http://www.w3.org/2000/svg" xmlns:xlink="http://www.w3.org/1999/xlink">
    <!-- Generator: sketchtool 53.2 (72643) - https://sketchapp.com -->
    <title>A826467F-8C25-4CCE-88D1-AACAB3C26530@1,5x</title>
    <desc>Created with sketchtool.</desc>
    <g id="Profile-/-drafts" stroke="none" stroke-width="1" fill="none" fill-rule="evenodd">
        <g id="02-Drafts-Copy" transform="translate(-574.000000, -594.600000)">
            <g id="Draft-review-/--grants-Copy" transform="translate(554.000000, 525.000000)">
                <g id="Group-2-Copy-3">
                    <g id="Icons-Color-38-px-/-Grant-Copy-2" transform="translate(20.000000, 70.000000)">
                        <g id="Group-36">
                            <circle id="Oval" fill="#FF9A3C" cx="19" cy="19" r="19"></circle>
                            <path d="M20.0776996,18.4357459 L20.0776996,18.1419184 C21.0129592,17.8997834 21.7044891,17.0647265 21.7044891,16.0743661 C21.7044891,15.0840056 21.0129592,14.2489487 20.0776996,14.006889 L20.0776996,12.0412922 C20.4940037,12.2129988 20.863564,12.5168337 21.0082617,12.6612268 C21.2300441,12.8842498 21.594984,12.8898178 21.8240052,12.6734916 C22.0532574,12.4567891 22.059341,12.0994557 21.8375586,11.8755298 C21.7448412,11.7819264 21.0219691,11.0769662 20.0776996,10.8545451 L20.0776996,10.5643294 C20.0776996,10.2525938 19.8191844,10 19.5001411,10 C19.1810979,10 18.9225827,10.2525938 18.9225827,10.5643294 L18.9225827,10.8692177 C18.0075762,11.1242946 17.3352982,11.9494194 17.3352982,12.9261606 C17.3352982,13.9026762 18.0076532,14.7277257 18.9225827,14.9827273 L18.9225827,16.8979107 C18.5241444,16.6790262 18.1561242,16.3256807 18.0174332,16.1677438 C17.8105903,15.9304997 17.4464204,15.9016813 17.2032298,16.1037112 C16.9603473,16.3057411 16.9310073,16.6618706 17.1376962,16.8992651 C17.234957,17.0107766 17.9831647,17.8415447 18.9225827,18.1209253 L18.9225827,18.4356706 C18.9225827,18.7474062 19.1810979,19 19.5001411,19 C19.8191844,19.0000752 20.0776996,18.7474062 20.0776996,18.4357459 Z M20.5493723,16.0743661 C20.5493723,16.4294421 20.3610882,16.7417043 20.0776996,16.9218383 L20.0776996,15.2269691 C20.3610882,15.407103 20.5493723,15.71929 20.5493723,16.0743661 Z M18.490415,12.9261606 C18.490415,12.5877135 18.6615263,12.288318 18.9225827,12.1048733 L18.9225827,13.7470718 C18.6615263,13.5637776 18.490415,13.2644573 18.490415,12.9261606 Z" id="Shape" fill="#FFFFFF" fill-rule="nonzero"></path>
                            <path d="M18.8343428,27 L18.8343428,30.4249674 C18.8343428,30.7425387 19.097936,31 19.4232462,31 C19.7485565,31 20.0121497,30.7425387 20.0121497,30.4249674 L20.0121497,30 L23.87677,30 C25.5988023,30 26.9999215,28.3944124 27,26.7129404 L27,24.2381535 C27,23.9205822 26.7364068,24 26.4110965,24 L23.8770055,24 C22.1548947,24 21,25.0310851 21,26.7127104 L21,29 L20.0122283,29 L20.0122283,21.0739409 C23.4282611,20.7809809 26.1171159,17.9679215 26.1171159,14.5503112 C26.1170374,10.9384165 23.1142577,8 19.4232462,8 C15.7320777,8 12.729141,10.9384165 12.729141,14.5503112 C12.729141,17.9679215 15.4181529,20.7809809 18.8343428,21.0739409 L18.8343428,26 L18,26 L18,24.2381535 C18.0000785,22.5564515 16.8451053,21.0000767 15.123073,21 L12.5889035,21 C12.4327263,21 12.2866274,21.0654184 12.1433137,21.1945742 C12,21.32373 12,21.6105613 12,21.7631366 L12,24.2378468 C12,25.9197021 13.4010407,27 15.123073,27 L18.8343428,27 Z M13,24.2377701 L13,22 L15.123073,22 C16.195584,22.0000767 17.0000785,23.1905208 17,24.2380768 L17,26 L15.123073,26 C14.0504049,26 13,25.2854028 13,24.2377701 Z M13.906948,14.5503112 C13.906948,11.5726391 16.381599,9.15006517 19.4232462,9.15006517 C22.4647365,9.15006517 24.9392304,11.5726391 24.9392304,14.5503112 C24.9392304,17.5280599 22.4647365,19.9507105 19.4232462,19.9507105 C16.381599,19.9506339 13.906948,17.5279833 13.906948,14.5503112 Z M26,26.7127871 C25.999843,27.7602664 24.9495166,29 23.8771626,29 L22,29 L22,26.7126337 C22,25.6651544 22.8043375,25 23.8770055,25 L26,25 L26,26.7127871 Z" id="Shape" fill="#FFFFFF" fill-rule="nonzero"></path>
                        </g>
                    </g>
                </g>
            </g>
        </g>
    </g>
</svg>