<?xml version="1.0" encoding="UTF-8"?>
<svg width="21px" height="30px" viewBox="0 0 21 30" version="1.1" xmlns="http://www.w3.org/2000/svg" xmlns:xlink="http://www.w3.org/1999/xlink">
    <!-- Generator: sketchtool 53 (72520) - https://sketchapp.com -->
    <title>2B06DC6C-4E87-46A7-887C-ED473F2A1CA7@3x</title>
    <desc>Created with sketchtool.</desc>
    <g id="Search-without-ideas" stroke="none" stroke-width="1" fill="none" fill-rule="evenodd">
        <g id="02-new-search" transform="translate(-183.000000, -194.000000)" fill="#35D0DE" fill-rule="nonzero">
            <g id="Group-13" transform="translate(165.000000, 180.000000)">
                <g id="Icons-Color-38-px-/-Idea-Copy-2" transform="translate(7.250000, 7.250000)">
                    <g id="Group" transform="translate(11.447368, 6.868421)">
                        <path d="M18.4556377,24.8026309 C19.0193557,24.8026309 19.4605263,24.3561835 19.4605263,23.785723 L19.4605263,21.702302 C19.4605263,19.6684863 18.6517135,17.7586837 17.2056542,16.3697364 C17.3036922,15.724868 17.3772206,15.0799996 17.3772206,14.4599338 C17.3772206,7.39118399 10.7351518,0.57046051 10.441038,0.29763157 C10.2449622,0.0992105234 9.99986743,-3.25353779e-14 9.73026316,-3.25353779e-14 C9.46065889,-3.25353779e-14 9.2155641,0.0992105234 9.01948827,0.29763157 C8.749884,0.59526314 2.13232467,7.41598662 2.13232467,14.4599338 C2.13232467,15.0799996 2.18134363,15.7000653 2.27938155,16.3201311 C0.833322286,17.7338811 0,19.6436836 0,21.702302 L0,23.785723 C0,24.3561835 0.441170622,24.8026309 1.00488864,24.8026309 C1.56860666,24.8026309 2.00977728,24.3561835 2.00977728,23.785723 L2.00977728,21.702302 C2.00977728,20.6357889 2.3284005,19.618881 2.86760904,18.7507889 C3.16172279,19.6684863 3.57838393,20.6357889 4.06857351,21.6030915 C4.24013986,21.9503283 4.58327257,22.3223678 4.97542423,22.3223678 L8.749884,22.3223678 L8.749884,23.785723 C8.749884,24.3561835 9.19105462,24.8026309 9.75477264,24.8026309 C10.3184907,24.8026309 10.7596613,24.3561835 10.7596613,23.785723 L10.7596613,22.3223678 L14.5586305,22.3223678 C14.9262727,22.3223678 15.2694054,21.9255257 15.4654812,21.6030915 C15.9556708,20.6605915 16.3478225,19.7180915 16.6419362,18.8003942 C17.1811448,19.6684863 17.4752585,20.6605915 17.4752585,21.702302 L17.4752585,23.785723 C17.450749,24.3313809 17.8919197,24.8026309 18.4556377,24.8026309 Z M14.1070023,20.6464781 L10.878287,20.6464781 L10.878287,18.9554059 C10.878287,18.3660928 10.4312342,17.9048913 9.85999992,17.9048913 C9.28876568,17.9048913 8.84171279,18.3660928 8.84171279,18.9554059 L8.84171279,20.6464781 L5.66267004,20.6464781 C5.0914358,19.3909851 4.66921919,18.1611144 4.44569274,17.0337329 C4.44569274,16.956866 4.42085647,16.8799991 4.3960202,16.8031322 C4.27183884,16.1113299 4.19733003,15.44515 4.19733003,14.8045923 C4.19733003,9.73137579 8.19596973,4.4531808 9.85999992,2.48026325 C11.5488664,4.4531808 15.5723424,9.70575349 15.5723424,14.8045923 C15.5723424,16.5725314 15.0756169,18.545449 14.1070023,20.6464781 Z" id="Shape"></path>
                        <path d="M6.19771447,12.214126 C6.19771447,14.1119827 7.83089592,15.6818148 9.86000015,15.6818148 C11.8891044,15.6818148 13.5222858,14.1354131 13.5222858,12.214126 C13.5222858,10.292839 11.8891044,8.74643725 9.86000015,8.74643725 C7.83089592,8.74643725 6.19771447,10.3162693 6.19771447,12.214126 L6.19771447,12.214126 Z M9.86000015,10.6911545 C10.7508264,10.6911545 11.4931816,11.3706341 11.4931816,12.2375562 C11.4931816,13.1044784 10.7755716,13.783958 9.86000015,13.783958 C8.96917391,13.783958 8.2268187,13.1044784 8.2268187,12.2375562 C8.2268187,11.3706341 8.96917391,10.6911545 9.86000015,10.6911545 Z" id="Shape"></path>
                        <path d="M5.5823911,28.8344743 L5.5823911,25.7313139 C5.5823911,25.2103454 5.21135277,24.8026309 4.73724824,24.8026309 C4.2631437,24.8026309 3.89210537,25.2103454 3.89210537,25.7313139 L3.89210537,28.8344743 C3.89210537,29.3554428 4.2631437,29.7631573 4.73724824,29.7631573 C5.21135277,29.7631573 5.5823911,29.3554428 5.5823911,28.8344743 Z" id="Shape"></path>
                        <path d="M15.9613379,28.8344743 L15.9613379,25.7313139 C15.9613379,25.2103454 15.5902995,24.8026309 15.116195,24.8026309 C14.6420905,24.8026309 14.2710521,25.2103454 14.2710521,25.7313139 L14.2710521,28.8344743 C14.2710521,29.3554428 14.6420905,29.7631573 15.116195,29.7631573 C15.5696863,29.7631573 15.9613379,29.3554428 15.9613379,28.8344743 Z" id="Shape"></path>
                    </g>
                </g>
            </g>
        </g>
    </g>
</svg>