<?xml version="1.0" encoding="UTF-8"?>
<svg width="22px" height="22px" viewBox="0 0 22 22" version="1.1" xmlns="http://www.w3.org/2000/svg" xmlns:xlink="http://www.w3.org/1999/xlink">
    <!-- Generator: sketchtool 53 (72520) - https://sketchapp.com -->
    <title>ECCBAB32-C388-43DE-9952-76FF6D166AB4@1,5x</title>
    <desc>Created with sketchtool.</desc>
    <g id="Grants" stroke="none" stroke-width="1" fill="none" fill-rule="evenodd">
        <g id="02-Apply-form" transform="translate(-447.000000, -1266.000000)">
            <g id="Icons-Light-32px-/-light-blue-checkbox" transform="translate(442.000000, 1261.000000)">
                <g id="Group" transform="translate(5.000000, 5.000000)">
                    <rect id="Rectangle-6-Copy-31" fill="#35D0DE" x="0" y="0" width="22" height="22" rx="2.79999995"></rect>
                    <path d="M7.03456661,12.010923 C6.79809424,11.7644936 6.41382664,11.7644936 6.17735428,12.010923 C5.94088191,12.2573525 5.94088191,12.6578004 6.17735428,12.9042298 L8.97068412,15.8151779 C9.0889203,15.9383926 9.23671553,16 9.39929029,16 C9.41406981,16 9.41406981,16 9.42884933,16 C9.59142409,15.9845982 9.75399884,15.907589 9.87223502,15.7689724 L16.8629494,7.03612818 C17.0698627,6.77429688 17.0403037,6.37384899 16.7890518,6.14282137 C16.5377999,5.92719559 16.1535323,5.95799927 15.9318394,6.21983058 L9.35495172,14.4290122 L7.03456661,12.010923 L7.03456661,12.010923 Z" id="Shape" stroke="#FFFFFF" stroke-width="1.39999998" fill="#FFFFFF" fill-rule="nonzero"></path>
                </g>
            </g>
        </g>
    </g>
</svg>