<?xml version="1.0" encoding="UTF-8"?>
<svg width="109px" height="109px" viewBox="0 0 109 109" version="1.1" xmlns="http://www.w3.org/2000/svg" xmlns:xlink="http://www.w3.org/1999/xlink">
    <!-- Generator: sketchtool 53.2 (72643) - https://sketchapp.com -->
    <title>329CE497-779E-40EC-8857-FC299988DE1E@3x</title>
    <desc>Created with sketchtool.</desc>
    <g id="Search-without-ideas" stroke="none" stroke-width="1" fill="none" fill-rule="evenodd">
        <g id="01-new-search" transform="translate(-140.000000, -178.000000)">
            <g id="Group-16" transform="translate(137.000000, 175.000000)">
                <g id="Icons-Color-38-px-/-Idea" transform="translate(3.593750, 3.593750)">
                    <g id="Group">
                        <circle id="Oval" fill="#FDC550" cx="53.90625" cy="53.90625" r="53.90625"></circle>
                        <g id="rocket-launch" transform="translate(31.208882, 18.725329)" fill="#FFFFFF" fill-rule="nonzero">
                            <g id="Group-4">
                                <path d="M40.3600089,57.8782895 C41.5927847,57.8782895 42.5575658,56.8569079 42.5575658,55.5518092 L42.5575658,50.7853619 C42.5575658,46.1324013 40.7888005,41.7631579 37.6264624,38.5855263 C37.8408582,37.1101974 38.0016551,35.6348684 38.0016551,34.2162829 C38.0016551,18.0444079 23.4763398,2.43996712 22.8331524,1.81578949 C22.4043608,1.36184212 21.8683713,1.13486844 21.2787829,1.13486844 C20.6891945,1.13486844 20.153205,1.36184212 19.7244134,1.81578949 C19.1348249,2.49671054 4.66310859,18.1011513 4.66310859,34.2162829 C4.66310859,35.6348684 4.77030649,37.053454 4.98470229,38.4720395 C1.82236428,41.7064145 0,46.0756579 0,50.7853619 L0,55.5518092 C0,56.8569079 0.964781088,57.8782895 2.19755692,57.8782895 C3.43033276,57.8782895 4.39511385,56.8569079 4.39511385,55.5518092 L4.39511385,50.7853619 C4.39511385,48.3453948 5.09190019,46.0189145 6.27107707,44.0328948 C6.91426447,46.1324013 7.82544661,48.3453948 8.89742559,50.5583882 C9.27261824,51.3527961 10.0230035,52.2039474 10.8805867,52.2039474 L19.1348249,52.2039474 L19.1348249,55.5518092 C19.1348249,56.8569079 20.099606,57.8782895 21.3323818,57.8782895 C22.5651577,57.8782895 23.5299388,56.8569079 23.5299388,55.5518092 L23.5299388,52.2039474 L31.8377759,52.2039474 C32.6417602,52.2039474 33.3921454,51.2960526 33.820937,50.5583882 C34.892916,48.4021382 35.7504992,46.2458882 36.3936866,44.1463816 C37.5728635,46.1324013 38.2160509,48.4021382 38.2160509,50.7853619 L38.2160509,55.5518092 C38.1624519,56.8001645 39.127233,57.8782895 40.3600089,57.8782895 Z M30.8501266,48.3698475 L23.7893581,48.3698475 L23.7893581,44.5010153 C23.7893581,43.1527859 22.8117133,42.0976498 21.5625004,42.0976498 C20.3132875,42.0976498 19.3356427,43.1527859 19.3356427,44.5010153 L19.3356427,48.3698475 L12.3835015,48.3698475 C11.1342886,45.4975327 10.2109574,42.6838365 9.72213493,40.104615 C9.72213493,39.928759 9.66782133,39.752903 9.61350772,39.577047 C9.34193971,37.9943429 9.1789989,36.4702575 9.1789989,35.0047907 C9.1789989,23.3982941 17.923489,11.3228481 21.5625004,6.80921054 C25.2558254,11.3228481 34.0546291,23.3396754 34.0546291,35.0047907 C34.0546291,39.049479 32.9683571,43.5631165 30.8501266,48.3698475 Z" id="Shape"></path>
                                <path d="M13.5535718,29.0783273 C13.5535718,33.4202409 17.1251211,37.0117002 21.5625004,37.0117002 C25.9998797,37.0117002 29.571429,33.4738447 29.571429,29.0783273 C29.571429,24.6828099 25.9998797,21.1449544 21.5625004,21.1449544 C17.1251211,21.1449544 13.5535718,24.7364138 13.5535718,29.0783273 L13.5535718,29.0783273 Z M21.5625004,25.5940755 C23.5106183,25.5940755 25.1340498,27.1485878 25.1340498,29.131931 C25.1340498,31.1152743 23.5647326,32.6697865 21.5625004,32.6697865 C19.6143826,32.6697865 17.990951,31.1152743 17.990951,29.131931 C17.990951,27.1485878 19.6143826,25.5940755 21.5625004,25.5940755 Z" id="Shape"></path>
                                <path d="M12.2079418,67.1023331 L12.2079418,60.0029279 C12.2079418,58.811057 11.3965306,57.8782884 10.3597275,57.8782884 C9.32292432,57.8782884 8.51151316,58.811057 8.51151316,60.0029279 L8.51151316,67.1023331 C8.51151316,68.294204 9.32292432,69.2269726 10.3597275,69.2269726 C11.3965306,69.2269726 12.2079418,68.294204 12.2079418,67.1023331 Z" id="Shape"></path>
                                <path d="M34.9053102,67.1023331 L34.9053102,60.0029279 C34.9053102,58.811057 34.093899,57.8782884 33.0570959,57.8782884 C32.0202927,57.8782884 31.2088816,58.811057 31.2088816,60.0029279 L31.2088816,67.1023331 C31.2088816,68.294204 32.0202927,69.2269726 33.0570959,69.2269726 C34.0488206,69.2269726 34.9053102,68.294204 34.9053102,67.1023331 Z" id="Shape"></path>
                            </g>
                        </g>
                    </g>
                </g>
            </g>
        </g>
    </g>
</svg>