<?xml version="1.0" encoding="UTF-8"?>
<svg width="21px" height="30px" viewBox="0 0 21 30" version="1.1" xmlns="http://www.w3.org/2000/svg" xmlns:xlink="http://www.w3.org/1999/xlink">
    <!-- Generator: sketchtool 53.2 (72643) - https://sketchapp.com -->
    <title>D14B33EE-AF68-40BE-9741-07D9EDF244F7@3x</title>
    <desc>Created with sketchtool.</desc>
    <g id="Search-without-ideas" stroke="none" stroke-width="1" fill="none" fill-rule="evenodd">
        <g id="01-new-search" transform="translate(-184.000000, -376.000000)" fill="#35D0DE"
           fill-rule="nonzero">
            <g id="Group-13" transform="translate(165.000000, 362.000000)">
                <g id="Icons-Color-38-px-/-Idea-Copy-2" transform="translate(7.250000, 7.250000)">
                    <g id="Group-36" transform="translate(12.592105, 8.013158)">
                        <path d="M10.479752,12.9849815 L10.479752,12.6193781 C11.6931283,12.3180946 12.5902973,11.2790506 12.5902973,10.0467657 C12.5902973,8.81448084 11.6931283,7.77543681 10.479752,7.47424699 L10.479752,5.02849574 C11.0198518,5.24214671 11.4993078,5.6202022 11.6870339,5.7998675 C11.9747674,6.07737034 12.4482289,6.08429855 12.7453537,5.81512828 C13.0427783,5.5454899 13.050671,5.10086743 12.7629375,4.8222411 C12.6426489,4.70577229 11.7048174,3.82860492 10.479752,3.55185107 L10.479752,3.19074161 C10.479752,2.80285555 10.1443626,2.4885583 9.730446,2.4885583 C9.31652935,2.4885583 8.98113997,2.80285555 8.98113997,3.19074161 L8.98113997,3.57010784 C7.7940394,3.88749469 6.92184718,4.9141803 6.92184718,6.12951915 C6.92184718,7.34457714 7.79413931,8.37116912 8.98113997,8.68846235 L8.98113997,11.0714852 C8.46421871,10.7991317 7.98676091,10.3594714 7.80682756,10.1629537 C7.53847609,9.8677558 7.06601366,9.83189763 6.75050587,10.0832793 C6.43539771,10.3346609 6.39733296,10.7777854 6.66548461,11.0731705 C6.79166775,11.2119219 7.76236873,12.2456293 8.98113997,12.5932569 L8.98113997,12.9848879 C8.98113997,13.372774 9.31652935,13.6870712 9.730446,13.6870712 C10.1443626,13.6871648 10.479752,13.372774 10.479752,12.9849815 Z M11.0916854,10.0467654 C11.0916854,10.4885791 10.8474117,10.8771206 10.4797522,11.1012575 L10.4797522,8.99236698 C10.8474117,9.21650389 11.0916854,9.60495168 11.0916854,10.0467654 Z M8.42045926,6.12951896 C8.42045926,5.70839625 8.64245367,5.33586462 8.98114001,5.10760824 L8.98114001,7.15096156 C8.64245367,6.92289243 8.42045926,6.55045443 8.42045926,6.12951896 Z" id="Shape"></path>
                        <path d="M8.86666047,23.6413043 L8.86666047,27.90292 C8.86666047,28.2980674 9.20863797,28.6184211 9.63068526,28.6184211 C10.0527326,28.6184211 10.39471,28.2980674 10.39471,27.90292 L10.39471,27.3741419 L15.4085463,27.3741419 C17.6426567,27.3741419 19.4604244,25.3763426 19.4605263,23.2841221 L19.4605263,20.2047963 C19.4605263,19.8096489 19.1185488,19.9084668 18.6965015,19.9084668 L15.4088519,19.9084668 C13.1746397,19.9084668 11.6763158,21.1914245 11.6763158,23.2838359 L11.6763158,26.1298627 L10.3948119,26.1298627 L10.3948119,16.2676324 C14.826665,15.9031084 18.3151004,12.4028772 18.3151004,8.1504158 C18.3149985,3.65621047 14.419287,0 9.63068526,0 C4.84187976,0 0.945964558,3.65621047 0.945964558,8.1504158 C0.945964558,12.4028772 4.43460361,15.9031084 8.86666047,16.2676324 L8.86666047,22.3970252 L7.78421053,22.3970252 L7.78421053,20.2047963 C7.7843124,18.1122895 6.28588661,16.1757247 4.05177626,16.1756293 L0.764024788,16.1756293 C0.561405414,16.1756293 0.371861329,16.257028 0.185930664,16.4177339 C0,16.5784398 0,16.935338 0,17.1251842 L0,20.2044147 C0,22.2971122 1.81766591,23.6413043 4.05177626,23.6413043 L8.86666047,23.6413043 Z M1.29736841,20.2043189 L1.29736841,17.4199081 L4.05177623,17.4199081 C5.44321816,17.4200035 6.48694393,18.9012483 6.48684206,20.2047005 L6.48684206,22.3970247 L4.05177623,22.3970247 C2.66013055,22.3970247 1.29736841,21.5078664 1.29736841,20.2043189 Z M2.47401405,8.15041577 C2.47401405,4.44536043 5.68454798,1.43100211 9.63068496,1.43100211 C13.5766182,1.43100211 16.7869484,4.44536043 16.7869484,8.15041577 C16.7869484,11.8555665 13.5766182,14.8700202 9.63068496,14.8700202 C5.68454798,14.8699248 2.47401405,11.8554711 2.47401405,8.15041577 Z M18.1631575,23.2839303 C18.1629538,24.587287 16.8002935,26.1298617 15.4090553,26.1298617 L12.9736838,26.1298617 L12.9736838,23.2837395 C12.9736838,21.9803827 14.0172059,21.152745 15.4088515,21.152745 L18.1631575,21.152745 L18.1631575,23.2839303 Z" id="Shape" stroke="#35D0DE" stroke-width="0.3"></path>
                    </g>
                </g>
            </g>
        </g>
    </g>
</svg>