<?xml version="1.0" encoding="UTF-8"?>
<svg width="24px" height="22px" viewBox="0 0 24 22" version="1.1" xmlns="http://www.w3.org/2000/svg" xmlns:xlink="http://www.w3.org/1999/xlink">
    <!-- Generator: sketchtool 53.2 (72643) - https://sketchapp.com -->
    <title>1FE0C368-0504-4B5E-A2BB-8C2843A66823@3x</title>
    <desc>Created with sketchtool.</desc>
    <g id="Search-without-ideas" stroke="none" stroke-width="1" fill="none" fill-rule="evenodd">
        <g id="01-new-search" transform="translate(-182.000000, -509.000000)" fill="#35D0DE"
           fill-rule="nonzero">
            <g id="Group-14" transform="translate(165.000000, 492.000000)">
                <g id="Icons-Color-38-px-/-Idea-Copy-3" transform="translate(7.250000, 7.250000)">
                    <g id="Group" transform="translate(10.302632, 11.447368)">
                        <path d="M0.808513532,20.1674017 L22.0862233,20.1674017 C22.5397797,20.1674017 22.8947368,19.8290855 22.8947368,19.3967927 L22.8947368,2.19905498 C22.8947368,1.76676212 22.5397797,1.42844597 22.0862233,1.42844597 L18.0830953,1.42844597 L18.0830953,0.770609011 C18.0830953,0.338316151 17.7281382,0 17.2745818,0 C16.8210254,0 16.4660683,0.338316151 16.4660683,0.770609011 L16.4660683,1.42844597 L6.56670747,1.42844597 L6.56670747,0.770609011 C6.56670747,0.338316151 6.21175031,0 5.75819393,0 C5.30463756,0 4.9496804,0.338316151 4.9496804,0.770609011 L4.9496804,1.42844597 L0.808513532,1.42844597 C0.35495716,1.42844597 0,1.76676212 0,2.19905498 L0,19.415588 C0,19.8290855 0.374677003,20.1674017 0.808513532,20.1674017 Z M1.61702706,2.96966391 L4.94968039,2.96966391 L4.94968039,3.38316143 C4.94968039,3.81545429 5.30463755,4.15377045 5.75819392,4.15377045 C6.21175029,4.15377045 6.56670744,3.81545429 6.56670744,3.38316143 L6.56670744,2.96966391 L16.4660682,2.96966391 L16.4660682,3.38316143 C16.4660682,3.81545429 16.8210254,4.15377045 17.2745817,4.15377045 C17.7281381,4.15377045 18.0830953,3.81545429 18.0830953,3.38316143 L18.0830953,2.96966391 L21.2974295,2.96966391 L21.2974295,4.96197014 L1.61702706,4.96197014 L1.61702706,2.96966391 L1.61702706,2.96966391 Z M1.61702706,6.50318804 L21.277709,6.50318804 L21.277709,18.6449787 L1.61702706,18.6449787 L1.61702706,6.50318804 Z" id="Shape" stroke="#35D0DE" stroke-width="0.3"></path>
                        <path d="M17.7725931,10.4314147 L5.83760426,10.4314147 C5.37234199,10.4314147 5.00822368,10.7367244 5.00822368,11.1268423 C5.00822368,11.5169603 5.37234199,11.82227 5.83760426,11.82227 L17.7725931,11.82227 C18.2378554,11.82227 18.6019737,11.5169603 18.6019737,11.1268423 C18.6019737,10.7367244 18.2378554,10.4314147 17.7725931,10.4314147 Z" id="Shape"></path>
                        <path d="M11.3847419,13.9085522 L5.78631073,13.9085522 C5.34982287,13.9085522 5.00822368,14.2138619 5.00822368,14.6039798 C5.00822368,14.9940978 5.34982287,15.2994075 5.78631073,15.2994075 L11.3847419,15.2994075 C11.8212298,15.2994075 12.1628289,14.9940978 12.1628289,14.6039798 C12.1628289,14.2138619 11.8212298,13.9085522 11.3847419,13.9085522 Z" id="Shape"></path>
                    </g>
                </g>
            </g>
        </g>
    </g>
</svg>