<?xml version="1.0" encoding="UTF-8"?>
<svg width="38px" height="38px" viewBox="0 0 38 38" version="1.1" xmlns="http://www.w3.org/2000/svg" xmlns:xlink="http://www.w3.org/1999/xlink">
    <!-- Generator: sketchtool 53.2 (72643) - https://sketchapp.com -->
    <title>B54AE765-61C5-4E9D-9C97-C1F2DFEB7B55@1,5x</title>
    <desc>Created with sketchtool.</desc>
    <g id="Profile-/-drafts" stroke="none" stroke-width="1" fill="none" fill-rule="evenodd">
        <g id="04-Drafts-Crowdfunding" transform="translate(-983.000000, -1132.000000)">
            <g id="Draft-Review-Copy-5" transform="translate(963.000000, 937.000000)">
                <g id="Group-2-Copy-4">
                    <g id="Icons-Color-38-px-/-Grant-Copy" transform="translate(20.000000, 195.000000)">
                        <g id="Group">
                            <circle id="Oval" fill="#FDC550" cx="19" cy="19" r="19"></circle>
                            <g id="rocket-launch" transform="translate(11.000000, 6.600000)" fill="#FFFFFF" fill-rule="nonzero">
                                <g id="Group-4">
                                    <path d="M14.2254408,20.4 C14.6599496,20.4 15,20.04 15,19.58 L15,17.9 C15,16.26 14.3765743,14.72 13.2619647,13.6 C13.3375315,13.08 13.3942065,12.56 13.3942065,12.06 C13.3942065,6.36 8.27455919,0.86 8.04785894,0.64 C7.89672544,0.48 7.70780856,0.4 7.5,0.4 C7.29219144,0.4 7.10327456,0.48 6.95214106,0.64 C6.74433249,0.88 1.64357683,6.38 1.64357683,12.06 C1.64357683,12.56 1.6813602,13.06 1.75692695,13.56 C0.64231738,14.7 0,16.24 0,17.9 L0,19.58 C0,20.04 0.340050378,20.4 0.774559194,20.4 C1.20906801,20.4 1.54911839,20.04 1.54911839,19.58 L1.54911839,17.9 C1.54911839,17.04 1.79471033,16.22 2.21032746,15.52 C2.43702771,16.26 2.7581864,17.04 3.13602015,17.82 C3.26826196,18.1 3.53274559,18.4 3.83501259,18.4 L6.74433249,18.4 L6.74433249,19.58 C6.74433249,20.04 7.08438287,20.4 7.51889169,20.4 C7.9534005,20.4 8.29345088,20.04 8.29345088,19.58 L8.29345088,18.4 L11.2216625,18.4 C11.5050378,18.4 11.7695214,18.08 11.9206549,17.82 C12.2984887,17.06 12.6007557,16.3 12.8274559,15.56 C13.243073,16.26 13.4697733,17.06 13.4697733,17.9 L13.4697733,19.58 C13.4508816,20.02 13.790932,20.4 14.2254408,20.4 Z M10.8735516,17.0486189 L8.38488665,17.0486189 L8.38488665,15.6849957 C8.38488665,15.2097937 8.04030227,14.8378964 7.6,14.8378964 C7.15969773,14.8378964 6.81511335,15.2097937 6.81511335,15.6849957 L6.81511335,17.0486189 L4.36473552,17.0486189 C3.92443325,16.036232 3.59899244,15.044506 3.42670025,14.1354239 C3.42670025,14.073441 3.40755668,14.0114581 3.3884131,13.9494752 C3.29269521,13.3916294 3.23526448,12.8544445 3.23526448,12.3379206 C3.23526448,8.24705097 6.31738035,3.99089373 7.6,2.4 C8.90176322,3.99089373 12.0030227,8.22639002 12.0030227,12.3379206 C12.0030227,13.7635266 11.6201511,15.3544204 10.8735516,17.0486189 Z" id="Shape"></path>
                                    <path d="M4.77714286,10.2490566 C4.77714286,11.7794238 6.03598456,13.045283 7.6,13.045283 C9.16401544,13.045283 10.4228571,11.7983172 10.4228571,10.2490566 C10.4228571,8.69979602 9.16401544,7.45283019 7.6,7.45283019 C6.03598456,7.45283019 4.77714286,8.71868944 4.77714286,10.2490566 L4.77714286,10.2490566 Z M7.6,9.02098419 C8.28664093,9.02098419 8.8588417,9.56889342 8.8588417,10.26795 C8.8588417,10.9670066 8.30571429,11.5149159 7.6,11.5149159 C6.91335907,11.5149159 6.3411583,10.9670066 6.3411583,10.26795 C6.3411583,9.56889342 6.91335907,9.02098419 7.6,9.02098419 Z" id="Shape"></path>
                                    <path d="M4.30285714,23.6511416 L4.30285714,21.1488584 C4.30285714,20.7287671 4.01686411,20.4 3.65142857,20.4 C3.28599303,20.4 3,20.7287671 3,21.1488584 L3,23.6511416 C3,24.0712329 3.28599303,24.4 3.65142857,24.4 C4.01686411,24.4 4.30285714,24.0712329 4.30285714,23.6511416 Z" id="Shape"></path>
                                    <path d="M12.3028571,23.6511416 L12.3028571,21.1488584 C12.3028571,20.7287671 12.0168641,20.4 11.6514286,20.4 C11.285993,20.4 11,20.7287671 11,21.1488584 L11,23.6511416 C11,24.0712329 11.285993,24.4 11.6514286,24.4 C12.0009756,24.4 12.3028571,24.0712329 12.3028571,23.6511416 Z" id="Shape"></path>
                                </g>
                            </g>
                        </g>
                    </g>
                </g>
            </g>
        </g>
    </g>
</svg>