<?xml version="1.0" encoding="UTF-8"?>
<svg width="15px" height="19px" viewBox="0 0 15 19" version="1.1" xmlns="http://www.w3.org/2000/svg" xmlns:xlink="http://www.w3.org/1999/xlink">
    <!-- Generator: sketchtool 53 (72520) - https://sketchapp.com -->
    <title>63213E94-9246-4302-98DE-BB66888974B0@2x</title>
    <desc>Created with sketchtool.</desc>
    <g id="Grants" stroke="none" stroke-width="1" fill="none" fill-rule="evenodd">
        <g id="02-Apply-form" transform="translate(-268.000000, -244.000000)">
            <g id="Icons-Color-24px-/-Location" transform="translate(264.000000, 241.000000)">
                <g id="Icons-/-Location">
                    <rect id="Rectangle" fill-opacity="0" fill="#D8D8D8" x="0" y="0" width="24" height="24"></rect>
                    <g id="Group-4" transform="translate(4.000000, 3.000000)" fill="#99B0BE" fill-rule="nonzero">
                        <path d="M7.50807896,2.90704392e-16 C3.37295988,2.90704392e-16 0,3.4039621 0,7.59345392 C-5.76113495e-16,8.10077519 0.0486484598,8.60809647 0.145945379,9.09905254 C0.145945379,9.13178295 0.162161533,9.16451335 0.162161533,9.21360896 C0.989185349,12.9612403 6.81078437,18.5908699 7.05402667,18.8199828 C7.1837559,18.9509044 7.34591743,19 7.50807896,19 C7.6702405,19 7.83240203,18.9345392 7.96213125,18.8199828 C8.20537355,18.5745047 13.9945403,12.9612403 14.8215641,9.29543497 C14.8215641,9.26270457 14.8377802,9.22997416 14.8377802,9.19724376 C14.9512933,8.67355728 14.9999418,8.1335056 14.9999418,7.59345392 C15.0161579,3.4039621 11.643198,0 7.50807896,2.90704392e-16 Z M13.540488,8.95176572 C13.540488,8.98449612 13.540488,8.96813092 13.540488,9.00086133 C12.9242742,11.7174849 8.88645199,16.005168 7.50807896,17.3962102 C6.12970593,16.005168 2.07566762,11.7174849 1.45945379,8.93540052 C1.45945379,8.90267011 1.45945379,8.88630491 1.44323764,8.8535745 C1.36215687,8.42807924 1.31350841,8.00258398 1.31350841,7.57708872 C1.31350841,4.14039621 4.08647062,1.3255814 7.49186281,1.3255814 C10.897255,1.3255814 13.6864334,4.12403101 13.6864334,7.57708872 C13.6864334,8.05167959 13.6377849,8.50990525 13.540488,8.95176572 Z" id="Shape"></path>
                        <path d="M7.5,4 C6.11290323,4 5,5.12903226 5,6.5 C5,7.87096774 6.12903226,9 7.5,9 C8.87096774,9 10,7.88709677 10,6.5 C10,5.11290323 8.88709677,4 7.5,4 Z M7.5,7.69354839 C6.83870968,7.69354839 6.30645161,7.16129032 6.30645161,6.5 C6.30645161,5.83870968 6.83870968,5.30645161 7.5,5.30645161 C8.16129032,5.30645161 8.69354839,5.83870968 8.69354839,6.5 C8.69354839,7.16129032 8.16129032,7.69354839 7.5,7.69354839 Z" id="Shape"></path>
                    </g>
                </g>
            </g>
        </g>
    </g>
</svg>