<?xml version="1.0" encoding="UTF-8"?>
<svg width="12px" height="14px" viewBox="0 0 12 14" version="1.1" xmlns="http://www.w3.org/2000/svg" xmlns:xlink="http://www.w3.org/1999/xlink">
    <!-- Generator: sketchtool 53.2 (72643) - https://sketchapp.com -->
    <title>C8BDF491-FF9F-43D9-B1F2-047C27719F91@1,5x</title>
    <desc>Created with sketchtool.</desc>
    <g id="Profile-/-drafts" stroke="none" stroke-width="1" fill="none" fill-rule="evenodd">
        <g id="02-Drafts-Copy" transform="translate(-528.000000, -204.000000)">
            <g id="Icons-Light-16px-/-Location-Copy" transform="translate(526.000000, 203.000000)">
                <g id="Icons-/-Location">
                    <rect id="Clip" fill="#D8D8D8" opacity="0" x="0" y="0" width="16" height="16"></rect>
                    <path d="M8.00646317,1 C11.3145584,1 14.0129263,3.5081826 13.9999534,6.59517657 C13.9999534,6.99310939 13.9610346,7.3910422 13.8702242,7.77691645 C13.8702242,7.80103359 13.8572513,7.82515073 13.8572513,7.84926787 C13.1956322,10.5503876 8.56429884,14.6864772 8.369705,14.8673557 C8.26592162,14.9517657 8.1361924,15 8.00646317,15 C7.87673394,15 7.74700472,14.9638243 7.64322134,14.8673557 C7.4486275,14.6985357 2.79134828,10.5503876 2.12972923,7.78897502 C2.12972923,7.75279931 2.1167563,7.72868217 2.1167563,7.70456503 C2.03891877,7.34280792 2,6.96899225 2,6.59517657 C2,3.5081826 4.6983679,1 8.00646317,1 Z M12.8323904,7.5960379 C12.9102279,7.2704565 12.9491467,6.93281654 12.9491467,6.583118 C12.9491467,4.03875969 10.717804,1.97674419 7.99349025,1.97674419 C5.2691765,1.97674419 3.05080673,4.05081826 3.05080673,6.583118 C3.05080673,6.89664083 3.0897255,7.21016365 3.15459011,7.52368648 C3.16756304,7.54780362 3.16756304,7.55986219 3.16756304,7.58397933 C3.66053409,9.63393626 6.90376475,12.7932817 8.00646317,13.8182601 C9.10916159,12.7932817 12.3394193,9.63393626 12.8323904,7.63221361 C12.8323904,7.60809647 12.8323904,7.62015504 12.8323904,7.5960379 Z M8,3.94736842 C9.10967742,3.94736842 10,4.837691 10,5.94736842 C10,7.05704584 9.09677419,7.94736842 8,7.94736842 C6.90322581,7.94736842 6,7.04414261 6,5.94736842 C6,4.85059423 6.89032258,3.94736842 8,3.94736842 Z M8,6.90220713 C8.52903226,6.90220713 8.95483871,6.47640068 8.95483871,5.94736842 C8.95483871,5.41833616 8.52903226,4.99252971 8,4.99252971 C7.47096774,4.99252971 7.04516129,5.41833616 7.04516129,5.94736842 C7.04516129,6.47640068 7.47096774,6.90220713 8,6.90220713 Z" id="Combined-Shape" fill="#99B0BE" fill-rule="nonzero"></path>
                </g>
            </g>
        </g>
    </g>
</svg>