<svg width="244" height="75" xmlns="http://www.w3.org/2000/svg"><g id="Page-1" fill="none" fill-rule="evenodd"><path d="M48.353 22.728L28.096 2.473h20.257v20.255zm2.295 1.623V4.096l20.257 20.255H50.648zm-2.184 24.182H28.2l20.264-20.264v20.264zm-21.887 2.295H46.84L26.577 71.083V50.828zM74.823 1.325v24.174c0 .018-.007.033-.007.051-.003.059-.015.117-.027.176-.011.053-.021.107-.039.158-.007.017-.006.037-.013.054-.016.036-.041.064-.059.097a1.07 1.07 0 0 1-.087.145 1.185 1.185 0 0 1-.111.123.995.995 0 0 1-.123.111 1.07 1.07 0 0 1-.145.087c-.034.018-.061.044-.097.058-.014.006-.03.004-.044.009a1.143 1.143 0 0 1-.395.078H50.759v47.206c0 .634-.514 1.148-1.148 1.148H25.427a1.16 1.16 0 0 1-.393-.078c-.014-.005-.029-.003-.044-.009-.035-.015-.063-.04-.096-.058-.05-.027-.099-.053-.145-.088a1.081 1.081 0 0 1-.124-.111 1.063 1.063 0 0 1-.11-.122 1.056 1.056 0 0 1-.089-.148c-.017-.033-.042-.06-.056-.094-.007-.017-.007-.035-.013-.053-.02-.054-.03-.108-.042-.165-.011-.057-.022-.111-.025-.169-.001-.017-.008-.034-.008-.053V26.646H1.145a1.16 1.16 0 0 1-.393-.078c-.014-.005-.03-.003-.044-.009-.035-.014-.063-.04-.096-.057a1.056 1.056 0 0 1-.145-.088 1.081 1.081 0 0 1-.124-.111 1.063 1.063 0 0 1-.11-.122 1.066 1.066 0 0 1-.089-.149c-.017-.032-.042-.059-.056-.094-.008-.016-.007-.035-.014-.052-.019-.053-.029-.109-.041-.165-.011-.057-.022-.112-.025-.169-.001-.018-.008-.035-.008-.053V1.325C0 .691.514.178 1.148.178h72.528c.634 0 1.147.513 1.147 1.147zm70.738 22.608v-1.915h-1.464V15h8.784v7.018H148.5l-2.939 1.915zm84.964 9.414c0 2.026 12.523 2.339 12.523 10.965 0 4.576-4.052 8.472-10.964 8.472-6.706 0-10.708-3.949-10.708-3.949l3.846-6.029s2.962 2.703 6.809 2.703c1.352 0 2.65-.363 2.65-1.248 0-2.338-12.526-2.597-12.526-11.331 0-5.041 4.835-8.159 11.018-8.159 6.24 0 9.408 3.065 9.408 3.065l-3.067 6.394s-2.597-2.183-6.341-2.183c-1.35 0-2.648.364-2.648 1.3zm-22.712 3.897V25.395h8.991v26.766h-8.627v-2.338c0-.882.104-1.665.104-1.665h-.104c-1.457 2.86-4.781 4.626-8.369 4.626-5.3 0-9.511-2.494-9.511-10.031V25.395h8.993v15.696c0 2.494.988 3.533 2.859 3.533 3.845 0 5.664-3.377 5.664-7.38zm-34.04-12.473c7.275 0 12.058 5.717 12.058 14.034 0 8.471-5.353 13.979-12.473 13.979-4.939 0-7.329-3.013-7.329-3.013h-.104s.053.675.053 1.506v.884h-8.422V15h8.992v10.342c0 1.353-.104 2.288-.104 2.288h.104s2.495-2.859 7.225-2.859zm-2.235 20.582c2.805 0 5.249-2.288 5.249-6.394 0-4.001-2.131-6.599-5.249-6.599-2.702 0-5.248 1.975-5.248 6.599 0 3.223 1.712 6.394 5.248 6.394zm-27.544 6.808V25.394h8.991v26.767h-8.991zm-13.72-20.582c1.143-3.637 4.521-6.652 8.523-6.652.521 0 1.04.103 1.04.103v8.836s-.727-.155-1.819-.155c-2.131 0-5.613.675-6.912 4.677-.313.988-.469 2.183-.469 3.639v10.134h-8.991V25.395h8.628v4.522c0 .883-.105 1.662-.105 1.662h.105zm-19.853 9.512c0 3.015 3.067 3.43 4.782 3.43.728 0 1.195-.051 1.195-.051v7.795s-.987.157-2.442.157c-4.262 0-12.526-1.145-12.526-10.135v-9.41H98v-7.014h3.69v-7.692h8.731v7.692h5.614v7.014h-5.614v8.214z" id="Combined-Shape" fill="#1A1919"/></g></svg>