<?xml version="1.0" encoding="UTF-8"?>
<svg width="19px" height="19px" viewBox="0 1 19 19" version="1.1"
     xmlns="http://www.w3.org/2000/svg">
        <path d="M7.39344262,15.7868852 C9.19672131,15.7868852 10.8360656,15.147541 12.1147541,14.0655738 L17.852459,19.8032787 C17.9836066,19.9344262 18.147541,20 18.3278689,20 C18.5081967,20 18.6721311,19.9344262 18.8032787,19.8032787 C19.0655738,19.5409836 19.0655738,19.1147541 18.8032787,18.852459 L13.0655738,13.1147541 C14.1311475,11.8360656 14.7868852,10.1803279 14.7868852,8.39344262 C14.7868852,4.31147541 11.4754098,1 7.39344262,1 C3.32786885,1 0,4.32786885 0,8.39344262 C0,12.4754098 3.32786885,15.7868852 7.39344262,15.7868852 Z M7.39344262,2.3442623 C10.7377049,2.3442623 13.442623,5.06557377 13.442623,8.39344262 C13.442623,11.7377049 10.7377049,14.442623 7.39344262,14.442623 C4.04918033,14.442623 1.3442623,11.7213115 1.3442623,8.39344262 C1.3442623,5.06557377 4.06557377,2.3442623 7.39344262,2.3442623 Z" id="Shape"></path>

</svg>