<?xml version="1.0" encoding="UTF-8"?>
<svg width="171px" height="158px" viewBox="0 0 171 158" version="1.1" xmlns="http://www.w3.org/2000/svg" xmlns:xlink="http://www.w3.org/1999/xlink">
    <!-- Generator: sketchtool 53.2 (72643) - https://sketchapp.com -->
    <title>7D00E0CE-C59D-4F8E-BB47-1125883B0FDC@1,5x</title>
    <desc>Created with sketchtool.</desc>
    <g id="Home" stroke="none" stroke-width="1" fill="none" fill-rule="evenodd">
        <g id="1440-copy-11" transform="translate(-647.000000, -1877.000000)">
            <g id="Group-15" transform="translate(643.000000, 1877.000000)">
                <circle id="Oval-3" fill="#A4EFF6" opacity="0.480691964" cx="87" cy="77" r="77"></circle>
                <g id="Group-8" transform="translate(0.000000, 11.000000)">
                    <g id="Icons-Color-38-px-/-Fundraising" transform="translate(36.000000, 16.000000)">
                        <g id="Group">
                            <g id="Group-5" fill="#42DA55">
                                <ellipse id="Oval" cx="51.4390244" cy="51.1438356" rx="51.4390244" ry="51.1438356"></ellipse>
                            </g>
                            <path d="M61.8804467,68.103479 C59.8169943,70.0879058 57.0378817,71.332664 53.5430255,71.8377908 L53.5430255,75.2473799 C53.5430255,76.0772311 53.2827741,76.7537301 52.7622636,77.2768972 C52.2417531,77.8000642 51.553946,78.0616438 50.6988216,78.0616438 C49.8436972,78.0616438 49.1558901,77.8000642 48.6353796,77.2768972 C48.1148691,76.7537301 47.8546177,76.0772311 47.8546177,75.2473799 L47.8546177,71.9460317 C45.7353964,71.7656293 43.671975,71.3326699 41.6642916,70.6471407 C39.6566082,69.9616114 37.9277957,69.0596128 36.4778021,67.9411176 C35.994471,67.6163932 35.6598621,67.2555938 35.4739655,66.8587084 C35.2880689,66.4618231 35.195122,65.9747438 35.195122,65.397456 C35.195122,64.6397657 35.4274892,63.9722867 35.8922307,63.3949989 C36.3569723,62.8177111 36.8867697,62.5290715 37.4816388,62.5290715 C37.853432,62.5290715 38.1973356,62.5922114 38.5133598,62.7184932 C38.8293841,62.8447749 39.2476452,63.0522346 39.7681557,63.3408785 C41.4784045,64.4232931 43.1607435,65.2170519 44.8152233,65.7221787 C46.4697032,66.2273056 48.2078104,66.4798652 50.0295971,66.4798652 C52.5206117,66.4798652 54.4446127,66.0108259 55.801658,65.0727332 C57.1587032,64.1346405 57.8372157,62.7816425 57.8372157,61.0136986 C57.8372157,59.9673645 57.465428,59.1194857 56.7218416,58.470037 C55.9782552,57.8205882 55.0487861,57.3064489 53.9334064,56.9276038 C52.8180268,56.5487587 51.2565187,56.1067794 49.2488353,55.6016525 C46.4603862,54.9161233 44.1924816,54.2215843 42.4450534,53.5180148 C40.6976253,52.8144453 39.1918854,51.7410669 37.9277884,50.2978474 C36.6636915,48.8546278 36.0316525,46.9063107 36.0316525,44.4528376 C36.0316525,41.5303181 37.1098367,39.0408018 39.2662373,36.984214 C41.422638,34.9276262 44.2482241,33.6467881 47.7430803,33.1416612 L47.7430803,29.7320722 C47.7430803,28.902221 48.0033316,28.225722 48.5238421,27.7025549 C49.0443527,27.1793878 49.7321598,26.9178082 50.5872842,26.9178082 C51.4424086,26.9178082 52.1302157,27.1793878 52.6507262,27.7025549 C53.1712367,28.225722 53.4314881,28.902221 53.4314881,29.7320722 L53.4314881,33.0875408 C57.1865996,33.5565871 60.421152,34.8735052 63.1352425,37.0383344 C64.0275463,37.6877832 64.4736914,38.5356619 64.4736914,39.5819961 C64.4736914,40.3396863 64.2413241,41.0071653 63.7765826,41.5844531 C63.3118411,42.1617409 62.7634543,42.4503805 62.1314059,42.4503805 C61.796792,42.4503805 61.4714778,42.3962606 61.1554535,42.2880191 C60.8394293,42.1797777 60.4211682,41.963298 59.9006577,41.6385736 C58.3763055,40.5922395 56.9356284,39.8075006 55.5785832,39.2843336 C54.2215379,38.7611665 52.6135564,38.4995869 50.7545903,38.4995869 C48.4494724,38.4995869 46.6091235,38.9956861 45.2334886,39.9878995 C43.8578537,40.980113 43.1700466,42.3421309 43.1700466,44.0739943 C43.1700466,45.2646504 43.5604236,46.229789 44.3411894,46.969439 C45.1219551,47.709089 46.1071924,48.2773482 47.2969307,48.6742335 C48.486669,49.0711189 50.1039452,49.5221182 52.1488079,50.0272451 C54.8628984,50.6766938 57.0750348,51.3441728 58.7852836,52.0297021 C60.4955324,52.7152314 61.9547989,53.7525298 63.1631269,55.1416286 C64.3714548,56.5307274 64.9756098,58.4159046 64.9756098,60.7972168 C64.9756098,63.6836558 63.9438991,66.1190522 61.8804467,68.103479 Z" id="$" fill="#FFFFFF"></path>
                        </g>
                    </g>
                    <g id="Group-9" transform="translate(31.162109, 112.530979) rotate(-17.000000) translate(-31.162109, -112.530979) translate(3.162109, 97.530979)">
                        <ellipse id="Oval-4" fill="#42DA55" cx="13.5365854" cy="15.5479452" rx="13.5365854" ry="13.4589041"></ellipse>
                        <path d="M55.3534252,0.294520548 L12.6341463,15.7896967" id="Path-2" stroke="#42DA55" stroke-width="5.4" stroke-linecap="round" stroke-linejoin="round"></path>
                    </g>
                    <g id="Group-9-Copy" transform="translate(146.049888, 25.136771) scale(-1, -1) rotate(-16.000000) translate(-146.049888, -25.136771) translate(118.049888, 10.136771)">
                        <ellipse id="Oval-4" fill="#42DA55" cx="13.5365854" cy="15.5479452" rx="13.5365854" ry="13.4589041"></ellipse>
                        <path d="M55.3534252,0.294520548 L12.6341463,15.7896967" id="Path-2" stroke="#42DA55" stroke-width="5.4" stroke-linecap="round" stroke-linejoin="round"></path>
                    </g>
                    <g id="Group-10" transform="translate(78.000000, 104.000000)">
                        <path d="M9.56097561,0.965993817 L9.56097561,25.0571514" id="Path-3" stroke="#42DA55" stroke-width="5.4" stroke-linecap="round" stroke-linejoin="round"></path>
                        <ellipse id="Oval-4-Copy" fill="#42DA55" cx="9.56097561" cy="34.0273973" rx="9.02439024" ry="8.97260274"></ellipse>
                    </g>
                    <g id="Group-10-Copy" transform="translate(152.000000, 69.500000) rotate(-90.000000) translate(-152.000000, -69.500000) translate(141.500000, 46.500000)">
                        <path d="M10.5609756,0.965993817 L10.5609756,25.0571514" id="Path-3" stroke="#42DA55" stroke-width="5.4" stroke-linecap="round" stroke-linejoin="round"></path>
                        <circle id="Oval-4-Copy" fill="#42DA55" cx="10.5365854" cy="35.0547945" r="10"></circle>
                    </g>
                    <g id="Group-10-Copy-2" transform="translate(43.688077, 23.688077) rotate(-225.000000) translate(-43.688077, -23.688077) translate(33.188077, 0.688077)">
                        <path d="M10.5609756,0.965993817 L10.5609756,25.0571514" id="Path-3" stroke="#42DA55" stroke-width="5.4" stroke-linecap="round" stroke-linejoin="round"></path>
                        <circle id="Oval-4-Copy" fill="#42DA55" cx="10.5365854" cy="35.0547945" r="10"></circle>
                    </g>
                </g>
            </g>
        </g>
    </g>
</svg>