<?xml version="1.0" encoding="UTF-8"?>
<svg width="166px" height="150px" viewBox="0 0 166 150" version="1.1" xmlns="http://www.w3.org/2000/svg" xmlns:xlink="http://www.w3.org/1999/xlink">
    <!-- Generator: sketchtool 53.2 (72643) - https://sketchapp.com -->
    <title>FCC94511-62D8-4B52-97C2-9E286380023B@1,5x</title>
    <desc>Created with sketchtool.</desc>
    <g id="Home" stroke="none" stroke-width="1" fill="none" fill-rule="evenodd">
        <g id="1440-copy-11" transform="translate(-228.000000, -1890.000000)">
            <g id="Group-14" transform="translate(228.000000, 1890.000000)">
                <circle id="Oval-2" fill="#C0F5FA" cx="83" cy="75" r="75"></circle>
                <polygon id="Rectangle-Copy" fill="#FFFFFF" points="0 28 92 28 92 82.8112819 31.1638097 82.8112819 16.9185094 95.5613285 14.7470887 82.8112819 0 82.8112819"></polygon>
                <g id="Icons-Color-24px-/-comment" transform="translate(0.000000, 23.000000)" fill="#41AAED" fill-rule="nonzero">
                    <path d="M3.24612737,62.4340771 C1.50430293,62.4340771 0,61.0466531 0,59.2738337 L0,3.16024341 C0,1.38742394 1.42512909,0 3.24612737,0 L88.7538726,0 C90.5748709,0 92,1.38742394 92,3.16024341 L92,59.3509128 C92,61.1237323 90.5748709,62.5111562 88.7538726,62.5111562 L36.3407917,62.5111562 L18.9225473,75.3833671 C18.3683305,75.7687627 17.6557659,76 16.9432014,76 C16.4681583,76 15.9931153,75.9229209 15.5180723,75.6916836 C14.4096386,75.1521298 13.697074,74.0730223 13.697074,72.8397566 L13.697074,62.4340771 L3.24612737,62.4340771 Z M23.172619,26 L68.827381,26 C70.6071429,26 72,24.6829268 72,23 C72,21.3170732 70.6071429,20 68.827381,20 L23.172619,20 C21.3928571,20 20,21.3170732 20,23 C20,24.6829268 21.3928571,26 23.172619,26 Z M23.172619,42 L68.827381,42 C70.6071429,42 72,40.6829268 72,39 C72,37.3170732 70.6071429,36 68.827381,36 L23.172619,36 C21.3928571,36 20,37.3170732 20,39 C20,40.6829268 21.3928571,42 23.172619,42 Z" id="Combined-Shape"></path>
                </g>
                <g id="Group-3" transform="translate(74.000000, 64.000000)">
                    <polygon id="Rectangle" fill="#FFFFFF" transform="translate(46.000000, 39.280664) scale(-1, 1) translate(-46.000000, -39.280664) " points="0 6 92 6 92 60 31.1638097 60 16.9185094 72.5613285 14.7470887 60 0 60"></polygon>
                    <path d="M3.24612737,62.4340771 C1.50430293,62.4340771 0,61.0466531 0,59.2738337 L0,3.16024341 C0,1.38742394 1.42512909,0 3.24612737,0 L88.7538726,0 C90.5748709,0 92,1.38742394 92,3.16024341 L92,59.3509128 C92,61.1237323 90.5748709,62.5111562 88.7538726,62.5111562 L36.3407917,62.5111562 L18.9225473,75.3833671 C18.3683305,75.7687627 17.6557659,76 16.9432014,76 C16.4681583,76 15.9931153,75.9229209 15.5180723,75.6916836 C14.4096386,75.1521298 13.697074,74.0730223 13.697074,72.8397566 L13.697074,62.4340771 L3.24612737,62.4340771 Z M23.172619,26 L68.827381,26 C70.6071429,26 72,24.6829268 72,23 C72,21.3170732 70.6071429,20 68.827381,20 L23.172619,20 C21.3928571,20 20,21.3170732 20,23 C20,24.6829268 21.3928571,26 23.172619,26 Z M23.172619,42 L68.827381,42 C70.6071429,42 72,40.6829268 72,39 C72,37.3170732 70.6071429,36 68.827381,36 L23.172619,36 C21.3928571,36 20,37.3170732 20,39 C20,40.6829268 21.3928571,42 23.172619,42 Z" id="Combined-Shape" fill="#72C8FF" fill-rule="nonzero" transform="translate(46.000000, 38.000000) scale(-1, 1) translate(-46.000000, -38.000000) "></path>
                </g>
            </g>
        </g>
    </g>
</svg>