<?xml version="1.0" encoding="UTF-8"?>
<svg width="154px" height="154px" viewBox="0 0 154 154" version="1.1" xmlns="http://www.w3.org/2000/svg" xmlns:xlink="http://www.w3.org/1999/xlink">
    <!-- Generator: sketchtool 53.2 (72643) - https://sketchapp.com -->
    <title>2A8A81B0-64AD-43BA-B876-B085A68293C1@1,5x</title>
    <desc>Created with sketchtool.</desc>
    <g id="Home" stroke="none" stroke-width="1" fill="none" fill-rule="evenodd">
        <g id="1440-copy-11" transform="translate(-1051.000000, -1877.000000)">
            <g id="Grants" transform="translate(1051.000000, 1877.000000)">
                <circle id="Oval-3" fill-opacity="0.841570426" fill="#FFD000" opacity="0.480691964" cx="77" cy="77" r="77"></circle>
                <g id="Icons-Color-38-px-/-Grant" transform="translate(26.000000, 26.000000)">
                    <g id="Group-36">
                        <circle id="Oval" fill="#FF9A3C" cx="51" cy="51" r="51"></circle>
                        <path d="M53.8927725,49.4854231 L53.8927725,48.6967283 C56.4032062,48.0467872 58.2594181,45.8053184 58.2594181,43.1469826 C58.2594181,40.4886467 56.4032062,38.247178 53.8927725,37.5974389 L53.8927725,32.3213632 C55.0102204,32.7822599 56.0021982,33.5978169 56.3905971,33.9853983 C56.9859079,34.5840389 57.9654834,34.5989847 58.5802244,34.0183195 C59.1955856,33.4366444 59.2119153,32.4774864 58.6166045,31.8764222 C58.3677316,31.6251709 56.4273906,29.7329092 53.8927725,29.1358843 L53.8927725,28.3568841 C53.8927725,27.5201203 53.1988634,26.8421053 52.3424841,26.8421053 C51.4861048,26.8421053 50.7921957,27.5201203 50.7921957,28.3568841 L50.7921957,29.1752686 C48.3361255,29.8599486 46.5315899,32.0747572 46.5315899,34.6965364 C46.5315899,37.3177097 48.3363322,39.5323164 50.7921957,40.2167944 L50.7921957,45.3575498 C49.7227035,44.7700176 48.7348597,43.8215641 48.3625838,43.397628 C47.8073738,42.760815 46.8298653,42.6834603 46.1770906,43.2257511 C45.5251426,43.7680419 45.446388,44.7239683 46.0011845,45.3611853 C46.2622531,45.6605056 48.2706,47.890462 50.7921957,48.6403785 L50.7921957,49.4852211 C50.7921957,50.321985 51.4861048,51 52.3424841,51 C53.1988634,51.0002019 53.8927725,50.321985 53.8927725,49.4854231 Z M55.1588413,43.1469826 C55.1588413,44.1000814 54.6534473,44.938259 53.8927725,45.4217764 L53.8927725,40.8723907 C54.6534473,41.3559081 55.1588413,42.1938837 55.1588413,43.1469826 Z M49.6321666,34.6965364 C49.6321666,33.7880731 50.0914654,32.9844324 50.7921957,32.4920283 L50.7921957,36.9000347 C50.0914654,36.4080345 49.6321666,35.6045958 49.6321666,34.6965364 Z" id="Shape" fill="#FFFFFF" fill-rule="nonzero"></path>
                        <path d="M50.5553411,72.4736842 L50.5553411,81.6670178 C50.5553411,82.5194461 51.2628807,83.2105263 52.136082,83.2105263 C53.0092833,83.2105263 53.716823,82.5194461 53.716823,81.6670178 L53.716823,80.5263158 L64.0902773,80.5263158 C68.7125746,80.5263158 72.4734734,76.2165805 72.4736842,71.7031558 L72.4736842,65.0603068 C72.4736842,64.2078784 71.7661446,64.4210526 70.8929433,64.4210526 L64.0909096,64.4210526 C59.4684016,64.4210526 56.3684211,67.1887021 56.3684211,71.7025384 L56.3684211,77.8421053 L53.7170337,77.8421053 L53.7170337,56.5668939 C62.886385,55.7805277 70.1038374,48.2296841 70.1038374,39.0560984 C70.1036266,29.3610127 62.0435339,21.4736842 52.136082,21.4736842 C42.2282086,21.4736842 34.1676944,29.3610127 34.1676944,39.0560984 C34.1676944,48.2296841 41.3855683,55.7805277 50.5553411,56.5668939 L50.5553411,69.7894737 L48.3157895,69.7894737 L48.3157895,65.0603068 C48.3160002,60.5462646 45.215809,56.3686269 40.5935117,56.3684211 L33.7912673,56.3684211 C33.3720548,56.3684211 32.9798946,56.5440177 32.5952104,56.8906991 C32.2105263,57.2373805 32.2105263,58.007296 32.2105263,58.4168403 L32.2105263,65.0594835 C32.2105263,69.5739373 35.9712144,72.4736842 40.5935117,72.4736842 L50.5553411,72.4736842 Z M34.8947368,65.0592777 L34.8947368,59.0526316 L40.5935117,59.0526316 C43.4723571,59.0528374 45.6317897,62.24824 45.6315789,65.0601009 L45.6315789,69.7894737 L40.5935117,69.7894737 C37.7142447,69.7894737 34.8947368,67.8713445 34.8947368,65.0592777 Z M37.3291762,39.0560984 C37.3291762,31.0633997 43.9716604,24.5607012 52.136082,24.5607012 C60.3000821,24.5607012 66.9421447,31.0633997 66.9421447,39.0560984 C66.9421447,47.049003 60.3000821,53.5519072 52.136082,53.5519072 C43.9716604,53.5517014 37.3291762,47.0487972 37.3291762,39.0560984 Z M69.7894737,71.7027442 C69.7890522,74.5143993 66.969755,77.8421053 64.0913311,77.8421053 L59.0526316,77.8421053 L59.0526316,71.7023326 C59.0526316,68.8906775 61.2116427,67.1052632 64.0909096,67.1052632 L69.7894737,67.1052632 L69.7894737,71.7027442 Z" id="Shape" fill="#FFFFFF" fill-rule="nonzero"></path>
                    </g>
                </g>
            </g>
        </g>
    </g>
</svg>