<?xml version="1.0" encoding="UTF-8"?>
<svg width="16px" height="13px" viewBox="0 0 16 13" version="1.1" xmlns="http://www.w3.org/2000/svg" xmlns:xlink="http://www.w3.org/1999/xlink">
    <!-- Generator: sketchtool 53.2 (72643) - https://sketchapp.com -->
    <title>3E06AE39-5AF2-498B-BCFB-FCB6B23BB398@3x</title>
    <desc>Created with sketchtool.</desc>
    <g id="Registration" stroke="none" stroke-width="1" fill="none" fill-rule="evenodd">
        <g id="02-Create-account" transform="translate(-949.000000, -584.000000)" fill="#99B0BE" fill-rule="nonzero">
            <g id="Group" transform="translate(425.000000, 185.000000)">
                <g id="Icons-Light-16px-/-Hide-Password-Copy" transform="translate(524.000000, 397.000000)">
                    <path d="M4.92077493,13.5116711 L5.48199738,12.7898891 C6.22867171,13.0523648 7.06753292,13.2147465 8,13.2147465 C12.2421712,13.2147465 14.5469729,9.85391705 15.0480167,8.99723502 C14.690594,8.38611559 13.4152803,6.50069298 11.1735731,5.47001596 L11.7615357,4.7138438 C14.56259,6.08213327 15.8768828,8.62254719 15.9498956,8.76658986 C16.0167015,8.8983871 16.0167015,9.03018433 15.9498956,9.16198157 C15.8496868,9.39262673 13.4112735,14.0714286 8,14.0714286 C6.83878242,14.0714286 5.8144646,13.8544531 4.92077493,13.5116711 Z M2.50213368,12.0983585 C0.886720983,10.781842 0.105904891,9.27206703 0.0501043841,9.16198157 C-0.0167014614,9.03018433 -0.0167014614,8.8983871 0.0501043841,8.76658986 C0.150313152,8.56889401 2.58872651,3.85714286 8,3.85714286 C8.30159836,3.85714286 8.59396179,3.87177949 8.87720017,3.89945545 L8.19097257,4.78200525 C8.12775706,4.78049083 8.0640997,4.7797235 8,4.7797235 C3.75782881,4.7797235 1.45302714,8.140553 0.951983299,8.99723502 C1.20034938,9.42189 1.89192731,10.4618536 3.04299106,11.4027678 L2.50213368,12.0983585 Z M5.71857854,12.4856247 L6.25089511,11.8010182 C6.7604263,12.1121941 7.35994098,12.2921659 8,12.2921659 C9.83716075,12.2921659 11.3402923,10.809447 11.3402923,8.99723502 C11.3402923,8.05767287 10.936247,7.20667923 10.2910869,6.60497187 L10.8180272,5.92727974 C11.6697055,6.68973772 12.2087683,7.7875135 12.2087683,8.99723502 C12.2087683,11.2707373 10.3382046,13.1488479 8,13.1488479 C7.15677499,13.1488479 6.3743683,12.9045931 5.71857854,12.4856247 Z M3.97348697,10.2060672 C3.85492153,9.82279593 3.79123173,9.41674671 3.79123173,8.99723502 C3.79123173,6.72373272 5.69519833,4.84562212 8,4.84562212 C8.04674072,4.84562212 8.09331658,4.84639452 8.13971506,4.84792697 L7.43899782,5.74911173 C5.86646536,6.0142514 4.65970772,7.3734799 4.65970772,8.99723502 C4.65970772,9.10091544 4.66462781,9.20351735 4.67424904,9.30482479 L3.97348697,10.2060672 Z M6.86502935,11.0111869 L7.41233549,10.3073024 C7.58234703,10.3761831 7.76942027,10.4140553 7.96659708,10.4140553 C8.76826722,10.4140553 9.40292276,9.78801843 9.40292276,8.99723502 C9.40292276,8.66795074 9.29287911,8.36723206 9.10655574,8.12838436 L9.64831109,7.43163876 C10.0528404,7.84453187 10.3048017,8.40629065 10.3048017,9.03018433 C10.3048017,10.3152074 9.26931106,11.3036866 8,11.3036866 C7.59122076,11.3036866 7.20322783,11.1977492 6.86502935,11.0111869 Z M11.4020371,2.17787292 C11.552923,1.98382026 11.8417112,1.94209601 12.0470636,2.0846792 C12.252416,2.22726239 12.2965699,2.50015967 12.145684,2.69421234 L2.71560997,14.8221271 C2.5647241,15.0161797 2.2759359,15.057904 2.07058347,14.9153208 C1.86523104,14.7727376 1.82107717,14.4998403 1.97196304,14.3057877 L11.4020371,2.17787292 Z" id="Combined-Shape"></path>
                </g>
            </g>
        </g>
    </g>
</svg>